<svg width="87" height="17" viewBox="0 0 87 17" fill="none" xmlns="http://www.w3.org/2000/svg">
<path fill-rule="evenodd" clip-rule="evenodd" d="M16.4854 11.0114H13.1605C12.7449 11.0114 12.3521 11.175 12.0598 11.4659L8.70286 14.8068C8.61608 14.8932 8.4745 14.8932 8.38772 14.8068L2.20369 8.65227C2.11691 8.56591 2.11691 8.425 2.20369 8.33864L8.38772 2.18409C8.4745 2.09773 8.61608 2.09773 8.70286 2.18409L12.0598 5.525C12.3521 5.81591 12.7494 5.97955 13.1605 5.97955H16.4854C16.965 5.97955 17.2025 5.40227 16.8645 5.06591L12.2744 0.497727C11.6076 -0.165909 10.5252 -0.165909 9.85837 0.497727L8.7805 1.57045C8.64805 1.70227 8.43339 1.70227 8.30094 1.57045L7.22308 0.497727C6.55626 -0.165909 5.47383 -0.165909 4.80701 0.497727L0.500112 4.78409C-0.166704 5.44773 -0.166704 6.525 0.500112 7.18864L1.57798 8.26136C1.71043 8.39318 1.71043 8.60682 1.57798 8.73864L0.500112 9.81136C-0.166704 10.475 -0.166704 11.5523 0.500112 12.2159L4.80701 16.5023C5.47383 17.1659 6.55626 17.1659 7.22308 16.5023L8.30094 15.4295C8.43339 15.2977 8.64805 15.2977 8.7805 15.4295L9.85837 16.5023C10.5252 17.1659 11.6076 17.1659 12.2744 16.5023L16.8691 11.9295C17.207 11.5886 16.965 11.0114 16.4854 11.0114Z" fill="white"/>
<path d="M74.2898 12.982V3.9767H76.1833V12.982H74.2898ZM75.2458 2.75286C74.8781 2.75286 74.5656 2.63717 74.3082 2.4058C74.0631 2.16225 73.9406 1.85172 73.9406 1.47422C73.9406 1.09672 74.0631 0.792278 74.3082 0.560906C74.5656 0.317355 74.8781 0.195579 75.2458 0.195579C75.6257 0.195579 75.9382 0.317355 76.1833 0.560906C76.4284 0.792278 76.551 1.09672 76.551 1.47422C76.551 1.85172 76.4284 2.16225 76.1833 2.4058C75.9382 2.63717 75.6257 2.75286 75.2458 2.75286Z" fill="white"/>
<path d="M63.5318 12.9816V3.97635H65.3885V5.32805H65.6826C65.8542 4.96273 66.1606 4.62176 66.6018 4.30514C67.043 3.98853 67.6986 3.83022 68.5688 3.83022C69.2551 3.83022 69.8617 3.98244 70.3887 4.28688C70.9279 4.59131 71.3508 5.02362 71.6572 5.58378C71.9635 6.13177 72.1167 6.79545 72.1167 7.57481V12.9816H70.2233V7.72094C70.2233 6.94158 70.0272 6.36923 69.635 6.00391C69.2428 5.6264 68.7036 5.43765 68.0173 5.43765C67.2329 5.43765 66.6018 5.69338 66.1238 6.20484C65.6581 6.71629 65.4252 7.45912 65.4252 8.43332V12.9816H63.5318Z" fill="white"/>
<path d="M56.8359 13.2377C55.929 13.2377 55.1201 13.055 54.4093 12.6897C53.7107 12.3122 53.1592 11.7764 52.7548 11.0823C52.3504 10.3882 52.1481 9.56618 52.1481 8.61633V8.34234C52.1481 7.39249 52.3504 6.5766 52.7548 5.89466C53.1592 5.20054 53.7107 4.66473 54.4093 4.28723C55.1201 3.90972 55.929 3.72097 56.8359 3.72097C57.7428 3.72097 58.5516 3.90972 59.2625 4.28723C59.9733 4.66473 60.5309 5.20054 60.9353 5.89466C61.3398 6.5766 61.542 7.39249 61.542 8.34234V8.61633C61.542 9.56618 61.3398 10.3882 60.9353 11.0823C60.5309 11.7764 59.9733 12.3122 59.2625 12.6897C58.5516 13.055 57.7428 13.2377 56.8359 13.2377ZM56.8359 11.5572C57.6692 11.5572 58.3433 11.2954 58.858 10.7718C59.385 10.2359 59.6485 9.4992 59.6485 8.56153V8.39714C59.6485 7.45947 59.3911 6.72882 58.8764 6.20518C58.3617 5.66937 57.6815 5.40147 56.8359 5.40147C56.0148 5.40147 55.3407 5.66937 54.8137 6.20518C54.299 6.72882 54.0416 7.45947 54.0416 8.39714V8.56153C54.0416 9.4992 54.299 10.2359 54.8137 10.7718C55.3407 11.2954 56.0148 11.5572 56.8359 11.5572Z" fill="white"/>
<path d="M48.4449 12.982C47.8934 12.982 47.4522 12.8176 47.1213 12.4888C46.8026 12.16 46.6433 11.7216 46.6433 11.1736V5.56586H44.6947V3.97669H46.6433V0.999287H48.5368V3.97669H51.2391V5.56586H48.5368V10.8448C48.5368 11.2101 48.7084 11.3928 49.0515 11.3928H50.945V12.982H48.4449Z" fill="white"/>
<path d="M35.5357 16.6351V14.9911H40.5911C40.9343 14.9911 41.1058 14.8084 41.1058 14.4431V11.6666H40.8117C40.7014 11.9102 40.5298 12.1476 40.297 12.379C40.0764 12.5982 39.7761 12.7809 39.3962 12.927C39.0163 13.0731 38.5383 13.1462 37.9623 13.1462C37.276 13.1462 36.6632 12.994 36.124 12.6895C35.5847 12.3851 35.1619 11.9528 34.8555 11.3926C34.5492 10.8325 34.396 10.1688 34.396 9.40161V3.97652H36.2894V9.25548C36.2894 10.0348 36.4855 10.6133 36.8777 10.9908C37.2699 11.3561 37.8152 11.5388 38.5138 11.5388C39.2859 11.5388 39.9048 11.283 40.3705 10.7716C40.8485 10.2601 41.0874 9.51729 41.0874 8.54309V3.97652H42.9809V14.8267C42.9809 15.3747 42.8155 15.8131 42.4846 16.1419C42.1659 16.4707 41.7247 16.6351 41.161 16.6351H35.5357Z" fill="white"/>
<path d="M24.9819 11.937C24.1153 11.0397 23.682 9.90302 23.682 8.52705C23.682 7.15109 24.1153 6.01443 24.9819 5.11706C25.8485 4.21969 26.9287 3.77101 28.2227 3.77101C29.6709 3.77101 30.8521 4.32738 31.7661 5.44011C32.1579 5.9546 32.4309 6.50499 32.5852 7.09127H30.6265C30.5434 6.79214 30.3891 6.52293 30.1635 6.28364C29.7006 5.74522 29.0536 5.47601 28.2227 5.47601C27.4867 5.47601 26.8694 5.75718 26.3708 6.31953C25.8841 6.88188 25.6407 7.61772 25.6407 8.52705C25.6407 9.43639 25.8841 10.1722 26.3708 10.7346C26.8694 11.2969 27.4867 11.5781 28.2227 11.5781C29.0774 11.5781 29.7481 11.3089 30.2348 10.7705C30.4485 10.5312 30.6087 10.262 30.7155 9.96284H32.5852C32.4309 10.573 32.1579 11.1294 31.7661 11.6319C30.8639 12.7327 29.6828 13.2831 28.2227 13.2831C26.9287 13.2831 25.8485 12.8344 24.9819 11.937Z" fill="white"/>
<path d="M79.3967 11.937C78.5301 11.0397 78.0968 9.90302 78.0968 8.52705C78.0968 7.15109 78.5301 6.01443 79.3967 5.11706C80.2632 4.21969 81.3435 3.77101 82.6374 3.77101C84.0857 3.77101 85.2668 4.32738 86.1809 5.44011C86.5726 5.9546 86.8457 6.50499 87 7.09127H85.0413C84.9582 6.79214 84.8039 6.52293 84.5783 6.28364C84.1154 5.74522 83.4684 5.47601 82.6374 5.47601C81.9014 5.47601 81.2841 5.75718 80.7856 6.31953C80.2989 6.88188 80.0555 7.61772 80.0555 8.52705C80.0555 9.43639 80.2989 10.1722 80.7856 10.7346C81.2841 11.2969 81.9014 11.5781 82.6374 11.5781C83.4921 11.5781 84.1628 11.3089 84.6496 10.7705C84.8632 10.5312 85.0235 10.262 85.1303 9.96284H87C86.8457 10.573 86.5726 11.1294 86.1809 11.6319C85.2787 12.7327 84.0976 13.2831 82.6374 13.2831C81.3435 13.2831 80.2632 12.8344 79.3967 11.937Z" fill="white"/>
</svg>
