<svg width="15" height="20" viewBox="0 0 15 20" fill="none" xmlns="http://www.w3.org/2000/svg">
<path d="M14.7806 15.0306L10.2806 19.5306C10.1399 19.6714 9.94902 19.7504 9.75 19.7504C9.55098 19.7504 9.36011 19.6714 9.21937 19.5306C9.07864 19.3899 8.99958 19.199 8.99958 19C8.99958 18.801 9.07864 18.6101 9.21937 18.4694L12.4397 15.25H0.75C0.551088 15.25 0.360322 15.171 0.21967 15.0303C0.0790178 14.8897 0 14.6989 0 14.5V1C0 0.801088 0.0790178 0.610322 0.21967 0.46967C0.360322 0.329018 0.551088 0.25 0.75 0.25C0.948912 0.25 1.13968 0.329018 1.28033 0.46967C1.42098 0.610322 1.5 0.801088 1.5 1V13.75H12.4397L9.21937 10.5306C9.07864 10.3899 8.99958 10.199 8.99958 10C8.99958 9.80098 9.07864 9.61011 9.21937 9.46937C9.36011 9.32864 9.55098 9.24958 9.75 9.24958C9.94902 9.24958 10.1399 9.32864 10.2806 9.46937L14.7806 13.9694C14.8504 14.039 14.9057 14.1217 14.9434 14.2128C14.9812 14.3038 15.0006 14.4014 15.0006 14.5C15.0006 14.5986 14.9812 14.6962 14.9434 14.7872C14.9057 14.8783 14.8504 14.961 14.7806 15.0306Z" fill="#939393"/>
</svg>
