<svg width="823" height="356" viewBox="0 0 823 356" fill="none" xmlns="http://www.w3.org/2000/svg">
<g filter="url(#filter0_f_13831_30487)">
<path d="M41.3035 269.502C41.3377 265.045 41.9531 261.178 43.1496 257.903C44.5803 254.629 47.9896 253.013 53.3775 253.054C53.846 253.058 54.8991 253.183 56.5371 253.43C58.4111 253.445 59.6986 253.572 60.3996 253.812C60.0806 264.837 61.7735 273.179 65.4783 278.838C69.1849 284.263 76.1917 287.015 86.4988 287.094C94.9319 287.159 103.258 285.932 111.477 283.415C119.695 280.897 127.103 277.2 133.7 272.324C140.533 267.214 145.968 261.039 150.007 253.796C154.279 246.556 156.45 238.361 156.521 229.211C156.564 223.581 154.603 219.577 150.639 217.2C146.909 214.825 142.707 212.916 138.033 211.473C133.358 210.029 129.037 208.471 125.067 206.798C121.333 204.892 119.484 201.711 119.518 197.253C119.559 191.857 122.878 186.721 129.475 181.844C136.072 176.968 143.836 172.687 152.766 169.002C161.699 165.082 170.506 162.1 179.19 160.055C188.11 157.777 194.912 156.656 199.597 156.692C199.545 163.496 197.985 168.294 194.918 171.085C192.086 173.879 188.555 176.081 184.326 177.691C180.096 179.301 175.75 180.91 171.287 182.518C167.059 183.893 163.524 186.681 160.68 190.883C164.405 193.961 167.429 196.8 169.751 199.399C172.31 201.764 174.281 204.36 175.665 207.187C177.049 210.013 177.962 213.187 178.403 216.71C178.847 219.998 179.05 223.988 179.014 228.68C178.921 240.88 176.141 252.003 170.676 262.05C165.446 271.864 158.587 280.375 150.098 287.583C141.611 294.556 131.964 299.996 121.158 303.901C110.354 307.572 99.3295 309.364 88.0854 309.278C81.9949 309.231 76.0269 308.482 70.1814 307.029C64.5719 305.343 59.5544 302.841 55.1289 299.523C50.9376 296.206 47.5724 292.074 45.0335 287.128C42.4946 282.181 41.2512 276.306 41.3035 269.502Z" fill="#AFAFAF"/>
<path d="M196.673 275.623C196.726 268.819 198.066 262.025 200.695 255.242C203.324 248.458 206.421 241.795 209.985 235.253C213.551 228.476 217.116 221.817 220.681 215.275C224.479 208.735 227.34 202.305 229.263 195.985C224.792 198.531 220.915 200.026 217.632 200.47C214.585 200.681 210.836 200.77 206.385 200.736C205.917 200.732 204.394 200.721 201.817 200.701C199.476 200.448 197.955 200.319 197.252 200.314C198.697 195.163 201.309 190.608 205.088 186.649C208.868 182.454 213.112 178.968 217.818 176.188C222.761 173.176 227.817 170.752 232.985 168.914C238.389 166.844 243.203 165.239 247.429 164.098C254.541 153.126 260.365 142.143 264.9 131.151C269.438 119.924 273.972 109.049 278.504 98.5255C283.272 87.7696 288.738 77.6055 294.903 68.0334C301.303 58.2285 309.806 49.2608 320.41 41.1305L322.065 54.5167L277.35 157.289C279.932 156.605 283.1 155.926 286.854 155.251C290.607 154.576 294.36 153.901 298.114 153.226C302.102 152.553 305.854 151.995 309.372 151.553C313.125 150.878 316.293 150.198 318.875 149.514C319.109 149.516 319.812 149.521 320.983 149.53C322.156 149.305 323.094 149.194 323.797 149.2C327.077 149.225 329.766 149.832 331.865 151.021C333.964 152.211 335.701 154.805 337.076 158.804C321.111 163.374 306.667 168.19 293.743 173.252C280.82 178.315 269.523 185.032 259.854 193.404C250.421 201.543 242.61 212.041 236.42 224.898C230.466 237.522 226.241 253.796 223.746 273.719C223.713 277.942 223.918 281.815 224.359 285.338C224.801 288.86 227.713 290.994 233.095 291.74C238.483 291.781 243.527 290.764 248.229 288.688C252.93 286.613 257.515 284.419 261.984 282.107C266.455 279.561 270.923 277.249 275.39 275.172C280.092 273.096 285.136 272.079 290.524 272.121C290.481 277.751 287.981 282.894 283.026 287.548C278.071 292.202 272.066 296.262 265.011 299.727C258.191 303.194 251.142 305.838 243.866 307.659C236.59 309.48 230.609 310.373 225.924 310.337C221.239 310.301 217.03 309.33 213.296 307.424C209.563 305.519 206.419 303.031 203.866 299.961C201.549 296.659 199.703 292.891 198.33 288.657C197.191 284.425 196.639 280.08 196.673 275.623Z" fill="#AFAFAF"/>
<path d="M282.773 287.546C284.984 274.19 289.061 261.903 295.004 250.687C300.947 239.471 307.697 229.786 315.257 221.632C323.052 213.246 331.421 206.389 340.364 201.061C349.307 195.734 358.001 192.398 366.444 191.056C374.89 189.478 382.618 189.889 389.627 192.289C396.871 194.691 402.691 199.428 407.088 206.501C407.047 211.897 405.719 217.048 403.104 221.955C400.724 226.864 397.992 231.77 394.909 236.673C392.06 241.579 389.327 246.602 386.711 251.744C384.329 256.887 383.115 262.391 383.07 268.256C383.023 274.356 384.274 279.293 386.822 283.066C389.606 286.607 394.394 288.404 401.188 288.456C406.81 288.499 412.204 287.719 417.37 286.117C422.77 284.516 428.164 283.736 433.552 283.777C434.489 283.785 436.011 283.914 438.118 284.164C440.46 284.182 441.983 284.194 442.685 284.199C439.844 288.166 436.187 291.54 431.714 294.321C427.242 297.102 422.538 299.53 417.602 301.603C412.669 303.442 407.504 304.811 402.109 305.708C396.948 306.606 392.143 307.039 387.692 307.005C383.475 306.972 379.735 306.005 376.469 304.103C373.204 302.201 370.412 299.716 368.093 296.648C365.774 293.58 363.926 290.164 362.549 286.399C361.409 282.402 360.853 278.526 360.882 274.773C357.337 278.734 353.44 282.927 349.189 287.352C345.174 291.545 340.811 295.383 336.099 298.866C331.621 302.351 326.679 305.245 321.273 307.55C316.102 309.857 310.705 310.988 305.083 310.945C298.992 310.898 293.739 308.629 289.322 304.137C284.907 299.411 282.724 293.881 282.773 287.546ZM306.048 276.815C306.033 278.692 306.017 280.803 305.999 283.149C306.215 285.497 307.726 287.034 310.532 287.759C316.399 286.397 323.099 283.398 330.631 278.764C338.165 273.894 345.236 268.318 351.843 262.034C358.453 255.515 364.011 248.636 368.518 241.398C373.026 233.925 375.306 226.786 375.359 219.982C375.362 219.513 375.251 218.809 375.023 217.868C375.032 216.695 375.039 215.874 375.042 215.405C367.078 215.344 358.983 216.924 350.759 220.145C342.535 223.367 335.121 227.885 328.517 233.7C321.915 239.28 316.477 245.808 312.202 253.283C308.162 260.76 306.111 268.604 306.048 276.815Z" fill="#AFAFAF"/>
<path d="M419.644 277.336C419.697 270.532 421.037 263.738 423.666 256.955C426.295 250.171 429.392 243.508 432.956 236.966C436.522 230.189 440.087 223.53 443.652 216.988C447.45 210.448 450.311 204.017 452.233 197.697C447.763 200.244 443.886 201.739 440.603 202.183C437.556 202.394 433.807 202.483 429.356 202.449C428.887 202.445 427.365 202.433 424.788 202.414C422.447 202.161 420.926 202.032 420.223 202.027C421.668 196.876 424.28 192.321 428.058 188.361C431.839 184.167 436.083 180.681 440.789 177.901C445.732 174.889 450.787 172.464 455.955 170.627C461.359 168.557 466.174 166.952 470.4 165.811C477.512 154.839 483.336 143.856 487.871 132.864C492.409 121.637 496.943 110.762 501.475 100.238C506.243 89.4825 511.709 79.3184 517.874 69.7463C524.274 59.9414 532.777 50.9737 543.381 42.8434L545.035 56.2296L500.321 159.002C502.903 158.318 506.071 157.639 509.824 156.964C513.578 156.289 517.331 155.614 521.085 154.939C525.073 154.265 528.825 153.708 532.342 153.265C536.096 152.59 539.264 151.911 541.846 151.227C542.08 151.229 542.783 151.234 543.954 151.243C545.127 151.017 546.065 150.907 546.768 150.913C550.047 150.938 552.737 151.545 554.836 152.734C556.935 153.924 558.672 156.518 560.047 160.517C544.082 165.087 529.638 169.903 516.714 174.965C503.791 180.028 492.494 186.745 482.825 195.117C473.392 203.256 465.58 213.754 459.391 226.611C453.437 239.235 449.212 255.508 446.717 275.432C446.684 279.655 446.889 283.528 447.33 287.051C447.772 290.573 450.684 292.707 456.066 293.453C461.454 293.494 466.498 292.477 471.2 290.401C475.901 288.326 480.486 286.132 484.955 283.82C489.425 281.274 493.894 278.962 498.361 276.885C503.062 274.809 508.107 273.792 513.495 273.834C513.452 279.464 510.952 284.607 505.997 289.261C501.042 293.915 495.037 297.975 487.982 301.44C481.162 304.907 474.113 307.551 466.837 309.372C459.561 311.193 453.58 312.086 448.895 312.05C444.21 312.014 440.001 311.043 436.267 309.137C432.534 307.232 429.39 304.744 426.837 301.674C424.519 298.372 422.674 294.604 421.301 290.37C420.162 286.138 419.61 281.793 419.644 277.336Z" fill="#AFAFAF"/>
<path d="M505.703 294.538C505.73 291.019 506.822 286.1 508.979 279.782C511.138 273.229 513.886 266.211 517.223 258.729C520.795 251.249 524.718 243.654 528.994 235.944C533.505 228.236 538.01 221.232 542.509 214.932C547.008 208.632 551.265 203.503 555.278 199.545C559.29 195.587 562.82 193.62 565.865 193.643C572.424 193.694 575.679 196.886 575.63 203.22C575.609 206.036 575.005 208.377 573.819 210.245C572.868 212.115 571.683 213.865 570.265 215.497C568.847 217.128 567.312 218.759 565.659 220.389C564.009 221.784 562.59 223.532 561.402 225.635C559.267 229.138 556.653 233.927 553.561 240.004C550.469 246.08 547.378 252.039 544.287 257.881C541.433 263.49 538.935 268.515 536.792 272.957C534.65 277.398 533.577 279.853 533.573 280.323L533.538 284.897C542.686 283.325 551.501 279.522 559.98 273.487C568.462 267.217 576.484 259.888 584.045 251.5C591.84 243.113 599.169 234.371 606.033 225.274C613.133 215.944 619.757 207.431 625.907 199.735C632.059 191.806 637.849 185.281 643.276 180.161C648.704 175.041 653.76 172.499 658.445 172.535C658.378 181.215 656.561 189.061 652.993 196.072C649.425 203.084 645.507 209.975 641.238 216.746C637.204 223.519 633.402 230.528 629.832 237.774C626.264 244.786 624.446 252.749 624.377 261.664C624.349 265.418 626.548 268.836 630.975 271.921C635.639 274.772 640.89 277.276 646.731 279.432C652.807 281.356 658.651 282.926 664.264 284.142C669.877 285.358 673.737 286.092 675.844 286.343L675.773 295.492C670.384 295.685 663.707 295.751 655.742 295.69C647.779 295.395 639.822 294.395 631.87 292.691C623.918 290.988 616.677 288.234 610.147 284.43C603.852 280.393 599.68 274.613 597.629 267.089C591.508 271.031 585.616 275.678 579.952 281.031C574.289 286.384 568.394 291.383 562.267 296.028C556.375 300.675 550.136 304.616 543.552 307.85C536.968 311.084 529.811 312.671 522.08 312.612C517.395 312.576 513.428 310.551 510.179 306.538C507.165 302.526 505.673 298.526 505.703 294.538Z" fill="#AFAFAF"/>
<path d="M663.736 274.284C663.77 269.826 664.385 265.96 665.582 262.684C667.013 259.411 670.422 257.794 675.81 257.836C676.278 257.839 677.331 257.965 678.969 258.212C680.843 258.226 682.131 258.354 682.832 258.594C682.513 269.618 684.206 277.96 687.91 283.62C691.617 289.045 698.624 291.797 708.931 291.876C717.364 291.941 725.69 290.714 733.909 288.196C742.127 285.679 749.535 281.982 756.132 277.105C762.965 271.996 768.401 265.82 772.439 258.578C776.711 251.338 778.883 243.143 778.953 233.993C778.996 228.362 777.035 224.359 773.071 221.982C769.341 219.607 765.139 217.698 760.465 216.254C755.791 214.811 751.469 213.252 747.499 211.579C743.765 209.674 741.916 206.492 741.95 202.035C741.991 196.639 745.311 191.502 751.907 186.626C758.504 181.75 766.268 177.469 775.199 173.784C784.131 169.864 792.939 166.881 801.622 164.836C810.542 162.559 817.344 161.438 822.029 161.474C821.977 168.277 820.417 173.075 817.351 175.867C814.518 178.661 810.987 180.863 806.758 182.472C802.529 184.082 798.182 185.691 793.719 187.299C789.491 188.675 785.956 191.463 783.113 195.664C786.837 198.743 789.861 201.582 792.184 204.18C794.742 206.546 796.714 209.142 798.098 211.968C799.481 214.794 800.394 217.969 800.836 221.491C801.279 224.78 801.482 228.77 801.446 233.462C801.353 245.661 798.573 256.785 793.108 266.831C787.879 276.645 781.019 285.156 772.531 292.364C764.043 299.338 754.397 304.777 743.591 308.683C732.786 312.354 721.762 314.146 710.518 314.06C704.427 314.013 698.459 313.263 692.614 311.811C687.004 310.125 681.987 307.623 677.561 304.304C673.37 300.987 670.005 296.856 667.466 291.909C664.927 286.963 663.683 281.087 663.736 274.284Z" fill="#AFAFAF"/>
</g>
<defs>
<filter id="filter0_f_13831_30487" x="0.301758" y="0.130859" width="862.728" height="354.932" filterUnits="userSpaceOnUse" color-interpolation-filters="sRGB">
<feFlood flood-opacity="0" result="BackgroundImageFix"/>
<feBlend mode="normal" in="SourceGraphic" in2="BackgroundImageFix" result="shape"/>
<feGaussianBlur stdDeviation="20.5" result="effect1_foregroundBlur_13831_30487"/>
</filter>
</defs>
</svg>
