<svg width="1024" height="407" viewBox="0 0 1024 407" fill="none" xmlns="http://www.w3.org/2000/svg">
<g filter="url(#filter0_f_13831_30486)">
<path d="M211.655 274.308C212.771 263.518 214.279 252.769 216.179 242.06C218.099 231.154 220.107 220.357 222.202 209.669C224.494 199 226.589 188.311 228.489 177.602C230.409 166.697 231.938 155.751 233.074 144.765L235.236 123.871C234.803 124.223 234.134 124.947 233.229 126.043C232.344 126.943 231.351 127.931 230.25 129.006C229.344 130.102 228.439 131.199 227.534 132.295C226.845 133.215 226.372 133.959 226.115 134.527C225.189 135.819 223.328 138.502 220.531 142.575C217.95 146.472 214.788 151.201 211.045 156.762C207.322 162.127 203.363 167.865 199.167 173.974C194.971 180.083 191.002 185.918 187.259 191.48C183.536 196.845 180.178 201.554 177.185 205.606C174.408 209.483 172.557 212.068 171.632 213.36C167.024 219.625 162.051 226.546 156.714 234.123C151.376 241.701 145.502 248.727 139.09 255.202C132.875 261.697 125.998 266.934 118.459 270.913C110.92 274.892 102.645 276.416 93.634 275.483C84.4273 274.531 76.403 271.718 69.5611 267.045C62.9353 262.195 57.4108 256.27 52.9875 249.269C48.5845 242.072 45.4379 234.212 43.5479 225.688C41.8538 217.185 41.4532 208.617 42.3462 199.985C42.4477 199.004 43.1302 197.191 44.3938 194.546C45.6776 191.705 46.654 189.922 47.3228 189.198C50.1932 192.073 52.6007 195.593 54.5455 199.76C56.5105 203.731 58.2492 207.975 59.7616 212.494C61.4698 217.033 63.0802 221.562 64.5925 226.081C66.3211 230.423 68.276 234.492 70.4572 238.287C72.8546 241.906 75.7047 244.977 79.0074 247.499C82.3101 250.022 86.508 251.547 91.601 252.074C98.2612 252.763 104.162 252.184 109.302 250.336C114.659 248.312 119.597 245.552 124.117 242.053C128.657 238.359 133.139 234.262 137.564 229.763C142.01 225.068 146.955 220.325 152.4 215.534C154.251 212.95 157.028 209.073 160.731 203.904C164.629 198.756 169 192.863 173.845 186.226C178.689 179.588 183.662 172.667 188.763 165.462C194.08 158.081 199.052 151.159 203.68 144.698C208.329 138.041 212.504 132.128 216.207 126.959C219.929 121.594 222.716 117.619 224.568 115.034C225.041 114.29 226.135 112.322 227.851 109.128C229.764 105.955 231.706 102.488 233.679 98.7264C235.848 94.9851 237.791 91.5178 239.507 88.3245C241.419 85.1515 242.622 83.0948 243.115 82.1544C244.554 79.7256 246.547 78.6429 249.093 78.9063C252.619 79.2711 254.875 81.3881 255.861 85.2575C257.042 89.1471 257.585 93.4664 257.49 98.2153C257.395 102.964 256.938 107.378 256.12 111.458C255.498 115.557 255.146 118 255.065 118.784C253.624 132.713 251.508 146.473 248.716 160.064C245.924 173.655 243.797 187.514 242.336 201.639L239.749 226.652C241.445 223.655 244.127 218.777 247.796 212.019C251.465 205.26 255.627 197.561 260.282 188.922C264.938 180.282 269.84 171.172 274.989 161.593C280.158 151.817 285.07 142.609 289.725 133.969C294.576 125.35 298.826 117.759 302.475 111.197C306.144 104.438 308.914 99.6686 310.786 96.888C314.313 91.5026 318.596 85.5015 323.636 78.8847C328.697 72.0717 334.196 65.7998 340.134 60.0691C346.269 54.3586 352.879 49.7879 359.965 46.357C367.072 42.73 374.445 41.3116 382.085 42.1019C370.148 48.4018 358.68 57.8237 347.681 70.3674C336.703 82.715 326.335 96.8112 316.579 112.656C306.843 128.305 297.613 144.799 288.89 162.138C280.363 179.498 272.406 196.124 265.021 212.016C257.831 227.928 251.185 242.409 245.084 255.46C239.198 268.334 233.931 278.1 229.283 284.757C224.831 291.435 221.068 294.317 217.994 293.405C215.117 292.512 213.004 286.147 211.655 274.308Z" fill="#AFAFAF"/>
<path d="M292.125 283.823C289.566 276.023 288.847 268.612 289.97 261.59C291.113 254.372 293.38 247.766 296.772 241.772C300.38 235.601 304.7 230.199 309.733 225.564C314.983 220.754 320.445 216.758 326.119 213.578C331.814 210.201 337.407 207.806 342.899 206.391C348.587 204.997 353.467 204.708 357.54 205.526C361.634 206.148 364.714 207.954 366.78 210.943C368.847 213.933 369.194 218.232 367.822 223.841C367.03 231.492 363.892 237.909 358.406 243.091C353.116 248.294 347.299 252.848 340.956 256.752C334.809 260.677 329.093 264.25 323.811 267.471C318.744 270.515 316.048 273.607 315.724 276.746C315.541 278.512 316.378 279.987 318.236 281.17C320.289 282.374 322.657 283.412 325.338 284.284C328.04 284.96 330.752 285.538 333.474 286.018C336.196 286.498 338.135 286.897 339.29 287.215C358.109 285.196 372.162 284.27 381.45 284.438C390.759 284.41 396.527 285.105 398.756 286.526C401.005 287.75 400.343 289.367 396.769 291.376C393.412 293.21 388.271 295.058 381.347 296.919C374.443 298.584 366.483 299.942 357.465 300.992C348.447 302.042 339.608 302.317 330.949 301.818C322.309 301.123 314.369 299.409 307.128 296.677C300.084 293.965 295.082 289.681 292.125 283.823ZM350.486 222.047C346.568 221.642 342.735 222.336 338.985 224.129C335.236 225.922 331.72 228.335 328.437 231.366C325.369 234.221 322.654 237.509 320.289 241.23C317.944 244.755 316.11 248.134 314.785 251.368C315.157 251.605 315.441 251.733 315.636 251.754L316.518 251.845C319.26 252.128 322.516 251.276 326.286 249.286C330.055 247.297 333.68 244.797 337.159 241.786C340.658 238.579 343.678 235.223 346.219 231.718C348.759 228.214 350.181 224.99 350.486 222.047Z" fill="#AFAFAF"/>
<path d="M382.314 279.769C382.902 274.079 384.568 268.501 387.311 263.035C390.055 257.568 393.18 252.241 396.686 247.051C400.213 241.666 403.73 236.379 407.236 231.19C410.939 226.021 413.848 220.869 415.963 215.734C412.018 217.507 408.653 218.448 405.87 218.556C403.304 218.489 400.159 218.263 396.437 217.878C396.046 217.837 394.772 217.706 392.618 217.483C390.679 217.084 389.416 216.854 388.828 216.793C390.45 212.599 393.001 208.996 396.48 205.985C399.979 202.778 403.81 200.2 407.971 198.251C412.348 196.127 416.773 194.502 421.245 193.379C425.933 192.079 430.091 191.121 433.718 190.505C440.549 181.892 446.302 173.168 450.978 164.332C455.674 155.301 460.339 146.563 464.974 138.12C469.826 129.501 475.214 121.433 481.139 113.916C487.28 106.223 495.114 99.3999 504.639 93.4454L504.951 104.78L459.303 187.203C461.518 186.838 464.224 186.523 467.419 186.258C470.614 185.994 473.809 185.73 477.004 185.465C480.395 185.221 483.58 185.055 486.559 184.967C489.754 184.702 492.459 184.387 494.675 184.022C494.871 184.042 495.458 184.103 496.438 184.204C497.438 184.109 498.231 184.092 498.819 184.153C501.561 184.437 503.763 185.16 505.425 186.323C507.086 187.487 508.332 189.797 509.163 193.253C495.436 195.799 482.963 198.673 471.743 201.874C460.523 205.076 450.531 209.792 441.769 216.024C433.224 222.08 425.846 230.24 419.637 240.503C413.644 250.59 408.805 263.87 405.121 280.343C404.756 283.875 404.617 287.132 404.704 290.115C404.792 293.099 407.058 295.118 411.502 296.172C416.007 296.638 420.31 296.191 424.411 294.831C428.511 293.47 432.524 292.002 436.448 290.425C440.394 288.652 444.318 287.075 448.223 285.695C452.323 284.334 456.626 283.887 461.132 284.353C460.645 289.062 458.141 293.165 453.622 296.663C449.102 300.161 443.752 303.078 437.571 305.412C431.586 307.767 425.476 309.416 419.241 310.357C413.006 311.298 407.93 311.566 404.012 311.161C400.094 310.756 396.649 309.606 393.678 307.712C390.706 305.819 388.274 303.485 386.383 300.712C384.709 297.763 383.466 294.462 382.656 290.809C382.042 287.176 381.928 283.496 382.314 279.769Z" fill="#AFAFAF"/>
<path d="M451.941 296.489C453.557 288.527 456.472 281.393 460.688 275.087C465.121 268.606 470.1 262.577 475.626 257.002C481.369 251.251 487.169 245.903 493.026 240.957C499.099 235.835 504.585 230.652 509.483 225.409C512.813 225.753 514.887 226.761 515.704 228.431C516.737 229.926 517.142 231.753 516.919 233.911C515.169 235.514 512.385 238.498 508.568 242.862C504.771 247.03 500.836 251.58 496.762 256.512C492.884 261.464 489.33 266.153 486.101 270.578C483.067 275.023 481.253 278.206 480.658 280.127C478.482 285.851 478.097 289.578 479.501 291.31C481.122 292.865 483.865 293.149 487.729 292.161C491.809 290.997 496.686 288.824 502.361 285.644C508.056 282.267 513.889 278.509 519.861 274.368C526.029 270.247 532.021 265.91 537.837 261.356C543.654 256.802 548.724 252.766 553.048 249.248L565.976 250.585C565.631 253.921 564.807 257.107 563.503 260.145C562.219 262.986 560.837 265.817 559.357 268.638C557.877 271.46 556.496 274.291 555.212 277.132C553.928 279.974 553.124 282.964 552.799 286.103C552.332 290.615 553.419 293.504 556.06 294.768C558.897 296.053 562.176 296.888 565.898 297.273C570.991 297.8 576.382 297.366 582.069 295.972C587.973 294.401 593.459 292.094 598.525 289.049C603.612 285.808 607.868 281.985 611.294 277.58C614.935 273 617.05 267.865 617.639 262.176C618.167 257.075 617.86 252.384 616.719 248.102C615.794 243.644 615.596 238.864 616.124 233.764C616.753 227.682 620.397 224.986 627.057 225.675C629.996 225.979 632.41 227.517 634.301 230.29C636.192 233.064 637.641 236.287 638.647 239.96C639.848 243.654 640.55 247.394 640.752 251.183C641.15 254.991 641.227 258.073 640.984 260.427C639.929 270.628 636.546 279.4 630.837 286.74C625.128 294.081 618.18 300.005 609.993 304.511C601.805 309.018 592.868 312.158 583.181 313.932C573.69 315.726 564.538 316.168 555.723 315.256C548.279 314.486 542.676 311.229 538.915 305.486C535.173 299.547 533.58 292.938 534.135 285.659C528.272 286.837 522.766 289.341 517.619 293.171C512.491 296.804 507.343 300.634 502.175 304.66C497.028 308.49 491.735 311.809 486.297 314.617C480.858 317.425 475.103 318.515 469.031 317.887C467.464 317.725 465.576 316.836 463.367 315.219C461.354 313.623 459.372 311.733 457.42 309.548C455.665 307.383 454.213 305.151 453.065 302.851C451.937 300.355 451.562 298.234 451.941 296.489Z" fill="#AFAFAF"/>
<path d="M639.478 310.239C639.559 309.454 639.721 307.884 639.965 305.53C640.425 303 640.695 301.343 640.776 300.558C648.526 286.885 657.927 274.473 668.98 263.323C680.033 252.173 692.217 242.528 705.532 234.388C705.923 234.428 706.521 234.391 707.325 234.276C708.345 233.985 709.051 233.859 709.443 233.9C714.732 234.447 718.919 236.07 722.006 238.769C725.309 241.291 727.747 244.518 729.32 248.448C731.109 252.202 732.162 256.376 732.479 260.969C732.816 265.366 732.772 269.625 732.346 273.745C731.554 281.396 728.959 289.257 724.56 297.328C720.182 305.203 714.591 312.358 707.788 318.792C701.201 325.051 693.855 330.041 685.748 333.763C677.662 337.289 669.505 338.626 661.278 337.775C653.051 336.924 647.104 334.127 643.437 329.386C639.986 324.468 638.666 318.086 639.478 310.239ZM662.762 309.078C662.539 311.236 663.268 312.799 664.95 313.766C666.632 314.733 668.354 315.308 670.117 315.49C675.014 315.997 679.847 315.208 684.616 313.124C689.602 310.863 694.061 307.954 697.992 304.395C702.14 300.66 705.546 296.452 708.208 291.77C710.87 287.088 712.434 282.491 712.901 277.979C713.124 275.821 713.172 273.447 713.044 270.856C713.132 268.089 712.788 265.674 712.012 263.611C711.256 261.351 709.861 259.522 707.828 258.122C705.991 256.742 703.171 256.252 699.368 256.652C696.564 256.956 693.166 259.183 689.174 263.33C685.181 267.478 681.205 272.42 677.246 278.157C673.503 283.718 670.239 289.428 667.455 295.287C664.692 300.95 663.127 305.547 662.762 309.078Z" fill="#AFAFAF"/>
<path d="M793.902 328.296C794.511 322.41 796.244 317.137 799.102 312.475C802.176 307.638 805.416 303.115 808.821 298.907C812.226 294.698 815.337 290.46 818.155 286.191C821.168 281.942 822.939 277.267 823.466 272.166C823.588 270.989 823.632 269.606 823.599 268.016C823.781 266.25 823.758 264.563 823.528 262.953C823.495 261.363 823.039 260.027 822.161 258.945C821.499 257.686 820.483 256.986 819.112 256.845C818.916 256.824 818.514 256.882 817.906 257.017C817.514 256.977 817.308 257.055 817.288 257.251C814.16 260.695 810.393 264.568 805.989 268.871C801.8 272.998 797.318 277.095 792.541 281.162C787.765 285.228 783.107 289.108 778.567 292.803C774.027 296.497 769.95 299.545 766.336 301.947C763.762 303.862 760.225 306.471 755.726 309.773C751.423 313.095 747.022 316.407 742.522 319.709C738.239 322.835 734.389 325.609 730.97 328.031C727.748 330.474 725.941 331.675 725.549 331.634L713.22 318.759C714.983 318.942 716.787 318.732 718.631 318.129C720.279 317.507 721.938 316.786 723.606 315.967C736.171 309.336 747.683 301.406 758.141 292.177C768.794 282.968 779.333 272.955 789.758 262.136C790.21 261.588 791.362 260.022 793.214 257.437C795.281 254.677 797.477 251.632 799.801 248.304C802.145 244.779 804.48 241.352 806.804 238.023C809.148 234.498 810.922 231.708 812.125 229.651C813.564 227.222 814.463 225.233 814.821 223.684C815.375 222.155 815.791 221.008 816.068 220.244C816.561 219.303 817.22 218.678 818.044 218.366C818.868 218.055 820.553 218.031 823.1 218.294C823.492 218.335 824.363 218.524 825.714 218.862C827.261 219.221 828.22 219.518 828.591 219.755C830.59 225.315 832.355 230.257 833.888 234.579C835.421 238.902 836.68 242.998 837.665 246.867C838.671 250.54 839.275 254.271 839.477 258.059C839.875 261.868 839.841 266.028 839.374 270.54C836.158 276.751 832.627 283.127 828.783 289.67C824.959 296.016 821.655 302.118 818.871 307.977C816.087 313.836 814.147 319.187 813.052 324.031C812.153 328.895 812.825 332.93 815.067 336.136C817.525 339.166 821.878 341.104 828.126 341.949C834.57 342.813 843.852 342.088 855.97 339.773C858.942 341.666 859.033 343.659 856.243 345.75C853.473 347.644 849.342 349.299 843.85 350.713C838.554 352.148 832.701 353.228 826.291 353.953C820.096 354.502 814.973 354.269 810.92 353.255C807.198 352.87 804.125 351.958 801.7 350.517C799.492 348.901 797.715 346.932 796.371 344.612C795.223 342.312 794.4 339.748 793.9 336.921C793.597 334.113 793.597 331.238 793.902 328.296Z" fill="#AFAFAF"/>
<path d="M877.06 317.566C874.385 320.461 872.06 323.79 870.087 327.552C868.114 331.313 865.966 334.858 863.642 338.187C861.317 341.516 858.662 344.215 855.676 346.286C852.69 348.356 848.945 349.158 844.439 348.692C840.718 348.307 838.232 347.455 836.982 346.136C835.753 344.621 835.342 341.902 835.748 337.978C836.235 333.27 838.046 328.203 841.181 322.777C844.512 317.371 848.312 312.212 852.582 307.3C856.872 302.192 861.22 297.487 865.624 293.183C870.029 288.88 873.657 285.389 876.508 282.71L943.044 170.623C944.76 167.429 947.533 164.544 951.364 161.966C955.39 159.408 959.362 158.332 963.28 158.737L962.275 168.448L923.671 237.324L922.94 244.386C926.27 244.731 929.455 244.565 932.495 243.888C935.555 243.015 938.625 242.043 941.706 240.974C944.786 239.905 947.944 239.042 951.18 238.385C954.631 237.552 958.316 237.339 962.234 237.744C965.516 240.463 967.073 243.598 966.903 247.15C966.754 250.505 965.487 254.142 963.102 258.059C960.737 261.78 957.579 265.518 953.627 269.273C949.87 273.048 945.928 276.705 941.801 280.244C937.693 283.587 933.724 286.547 929.894 289.125C926.259 291.723 923.479 293.716 921.554 295.103C918.372 297.153 915.457 298.537 912.809 299.254C910.378 299.796 908.24 300.368 906.395 300.97C904.551 301.573 903.058 302.608 901.916 304.076C900.971 305.564 900.305 308.172 899.919 311.9C899.351 317.393 900.353 322.057 902.926 325.893C905.52 329.532 909.065 332.575 913.564 335.024C918.258 337.492 923.503 339.423 929.298 340.815C935.31 342.032 941.352 342.954 947.424 343.583C953.497 344.211 959.296 344.612 964.821 344.787C970.367 344.766 975.129 344.664 979.108 344.481L982.268 348.377C979.809 351.097 976.185 353.597 971.395 355.877C966.822 357.982 961.779 359.84 956.267 361.451C950.971 362.886 945.705 364.026 940.47 364.873C935.255 365.523 930.983 365.676 927.653 365.331C921.385 364.683 915.413 363.074 909.74 360.504C904.086 357.738 899.004 354.238 894.492 350.004C889.981 345.77 886.128 340.91 882.934 335.424C879.956 329.762 877.998 323.809 877.06 317.566ZM941.794 257.342C940.031 257.159 937.316 257.572 933.648 258.581C929.98 259.589 926.271 260.99 922.522 262.784C918.773 264.577 915.493 266.617 912.682 268.904C909.872 271.191 908.335 273.609 908.071 276.16L907.858 278.22C909.29 277.773 911.742 277.035 915.214 276.007C918.882 274.998 922.581 273.695 926.31 272.098C930.255 270.325 933.741 268.207 936.767 265.744C939.794 263.281 941.469 260.481 941.794 257.342Z" fill="#AFAFAF"/>
</g>
<defs>
<filter id="filter0_f_13831_30486" x="0.883789" y="0.890625" width="1022.38" height="405.619" filterUnits="userSpaceOnUse" color-interpolation-filters="sRGB">
<feFlood flood-opacity="0" result="BackgroundImageFix"/>
<feBlend mode="normal" in="SourceGraphic" in2="BackgroundImageFix" result="shape"/>
<feGaussianBlur stdDeviation="20.5" result="effect1_foregroundBlur_13831_30486"/>
</filter>
</defs>
</svg>
