<svg width="41" height="40" viewBox="0 0 41 40" fill="none" xmlns="http://www.w3.org/2000/svg">
<rect x="0.231445" width="40" height="40" rx="20" fill="white"/>
<path d="M25.4429 15.3175C25.4363 15.3109 25.4258 15.3028 25.4173 15.2989C24.4746 14.8701 23.4588 14.5586 22.3988 14.3788C22.3837 14.3763 22.3673 14.3737 22.3528 14.3784C22.3301 14.3859 22.3175 14.4079 22.3057 14.4286C22.2912 14.4541 22.2766 14.4803 22.262 14.5071C22.0551 14.8861 21.6464 15.1141 21.2163 15.0767C20.5942 15.0225 19.9753 15.0187 19.3618 15.0651C18.8615 15.103 18.3812 14.8313 18.129 14.3975C18.1134 14.3662 18.0667 14.3779 18.0322 14.3838C16.9844 14.5642 15.9802 14.8803 15.0475 15.2969C15.036 15.3021 15.0238 15.3046 15.0144 15.3131C15.0102 15.3168 15.0059 15.3222 15.0027 15.3268C13.0632 18.1811 12.5315 20.9681 12.7939 23.7176C12.7939 23.7482 12.829 23.7642 12.8539 23.7822C14.1164 24.6958 15.3496 25.2508 16.5533 25.622C16.59 25.6343 16.6173 25.5914 16.6401 25.56C16.912 25.1846 17.1623 24.7948 17.3712 24.3774C17.4002 24.3339 17.3238 24.3009 17.275 24.2822C16.8961 24.1371 16.5305 23.9597 16.1781 23.7625C16.1481 23.7475 16.1481 23.7026 16.1706 23.6876C16.2334 23.6374 16.3014 23.5872 16.3659 23.537C16.3908 23.5176 16.42 23.486 16.4482 23.5001C18.9019 24.6023 21.5657 24.6023 23.9894 23.5001C24.0044 23.4926 24.0269 23.4926 24.0419 23.5076C24.117 23.5676 24.192 23.6276 24.2745 23.6876C24.3046 23.7101 24.297 23.7475 24.267 23.7625C23.8919 23.98 23.5017 24.1599 23.0965 24.3099C23.0665 24.3174 23.0589 24.3474 23.074 24.3774C23.2899 24.7874 23.5335 25.1836 23.8047 25.5528C23.8277 25.584 23.8551 25.6268 23.8919 25.6145C25.1115 25.2407 26.3535 24.6805 27.6328 23.7629C27.64 23.7577 27.6456 23.7537 27.6506 23.7463C27.6617 23.7295 27.6672 23.7071 27.6692 23.6871C27.9757 20.5158 27.1369 17.7682 25.4492 15.3256C25.4465 15.3217 25.4462 15.3208 25.4429 15.3175ZM17.7389 22.0455C16.996 22.0455 16.3882 21.3782 16.3882 20.5609C16.3882 19.7436 16.9885 19.0763 17.7389 19.0763C18.4967 19.0763 19.097 19.7511 19.0895 20.5609C19.0895 21.3782 18.4892 22.0455 17.7389 22.0455ZM22.7288 22.0455C21.9859 22.0455 21.3781 21.3782 21.3781 20.5609C21.3781 19.7436 21.9784 19.0763 22.7288 19.0763C23.4867 19.0763 24.087 19.7511 24.0795 20.5609C24.0795 21.3782 23.4867 22.0455 22.7288 22.0455Z" fill="#0A0A0A"/>
</svg>
