<svg width="40" height="40" viewBox="0 0 40 40" fill="none" xmlns="http://www.w3.org/2000/svg">
<rect width="40" height="40" rx="20" fill="white"/>
<g clip-path="url(#clip0_13870_37390)">
<path d="M25.6719 18.4531V18.9688C25.6708 19.8412 25.3541 20.6838 24.7802 21.3409C24.2064 21.9981 23.4141 22.4254 22.5498 22.544C22.9026 22.9954 23.0941 23.552 23.0938 24.125V26.7031C23.0938 26.8399 23.0394 26.971 22.9427 27.0677C22.846 27.1644 22.7149 27.2188 22.5781 27.2188H18.4531C18.3164 27.2188 18.1852 27.1644 18.0885 27.0677C17.9918 26.971 17.9375 26.8399 17.9375 26.7031V25.6719H16.3906C15.7069 25.6719 15.0511 25.4003 14.5676 24.9168C14.0841 24.4333 13.8125 23.7775 13.8125 23.0938C13.8125 22.6835 13.6495 22.29 13.3594 22C13.0693 21.7099 12.6759 21.5469 12.2656 21.5469C12.1289 21.5469 11.9977 21.4926 11.901 21.3959C11.8043 21.2992 11.75 21.168 11.75 21.0313C11.75 20.8945 11.8043 20.7634 11.901 20.6667C11.9977 20.57 12.1289 20.5156 12.2656 20.5156C12.6042 20.5156 12.9394 20.5823 13.2522 20.7119C13.565 20.8414 13.8492 21.0313 14.0886 21.2707C14.328 21.5101 14.5179 21.7944 14.6475 22.1072C14.7771 22.4199 14.8438 22.7552 14.8438 23.0938C14.8438 23.504 15.0067 23.8975 15.2968 24.1876C15.5869 24.4777 15.9804 24.6406 16.3906 24.6406H17.9375V24.125C17.9372 23.552 18.1287 22.9954 18.4815 22.544C17.6171 22.4254 16.8249 21.9981 16.251 21.3409C15.6772 20.6838 15.3605 19.8412 15.3594 18.9688V18.4531C15.3658 17.8123 15.5364 17.1839 15.855 16.6278C15.6974 16.1194 15.6469 15.5839 15.7065 15.0549C15.7662 14.526 15.9348 14.0152 16.2018 13.5547C16.247 13.4763 16.3122 13.4112 16.3906 13.3659C16.469 13.3207 16.5579 13.2969 16.6484 13.2969C17.249 13.2956 17.8416 13.4349 18.3788 13.7034C18.9159 13.972 19.3828 14.3625 19.7422 14.8438H21.2891C21.6484 14.3625 22.1153 13.972 22.6525 13.7034C23.1897 13.4349 23.7822 13.2956 24.3828 13.2969C24.4733 13.2969 24.5623 13.3207 24.6407 13.3659C24.7191 13.4112 24.7842 13.4763 24.8295 13.5547C25.0964 14.0152 25.265 14.526 25.3246 15.055C25.3842 15.5839 25.3334 16.1195 25.1756 16.6278C25.4948 17.1837 25.6657 17.8122 25.6719 18.4531Z" fill="#0A0A0A"/>
</g>
<defs>
<clipPath id="clip0_13870_37390">
<rect width="16.5" height="16.5" fill="white" transform="translate(11.75 11.75)"/>
</clipPath>
</defs>
</svg>
