<svg width="41" height="40" viewBox="0 0 41 40" fill="none" xmlns="http://www.w3.org/2000/svg">
<rect x="0.151367" width="40" height="40" rx="20" fill="white"/>
<path d="M13.5471 19.3994C17.0458 17.8754 19.3783 16.8706 20.5446 16.3852C23.8783 14.999 24.5702 14.7582 25.0221 14.7501C25.1215 14.7485 25.3427 14.773 25.4871 14.8898C25.6071 14.9883 25.6408 15.1214 25.6577 15.2148C25.6727 15.3082 25.6933 15.521 25.6765 15.6871C25.4965 17.5846 24.7146 22.1892 24.3171 24.3145C24.1502 25.2138 23.8183 25.5153 23.4977 25.5448C22.8002 25.6089 22.2715 25.0843 21.5965 24.6419C20.5408 23.9495 19.9446 23.5186 18.919 22.843C17.734 22.0623 18.5027 21.6331 19.1777 20.9318C19.354 20.7483 22.4252 17.9555 22.4833 17.7022C22.4908 17.6705 22.4983 17.5523 22.4271 17.4901C22.3577 17.4277 22.2546 17.449 22.1796 17.4659C22.0727 17.4899 20.3871 18.6052 17.1171 20.8115C16.639 21.1403 16.2058 21.3007 15.8158 21.2922C15.3883 21.283 14.5633 21.05 13.9502 20.8508C13.2002 20.6065 12.6021 20.4773 12.6546 20.0624C12.6808 19.8464 12.979 19.6253 13.5471 19.3994Z" fill="#0A0A0A"/>
</svg>
