<svg width="155" height="20" viewBox="0 0 155 20" fill="none" xmlns="http://www.w3.org/2000/svg">
<g clip-path="url(#clip0_13831_30690)">
<mask id="mask0_13831_30690" style="mask-type:luminance" maskUnits="userSpaceOnUse" x="0" y="-1" width="155" height="20">
<path d="M154.09 -0.00585938H0V18.7515H154.09V-0.00585938Z" fill="white"/>
</mask>
<g mask="url(#mask0_13831_30690)">
<path d="M0 18.2949H3.93264V0.443359H0V18.2949Z" fill="#343434"/>
<path d="M8.83057 18.2949H12.7632V5.59126H12.8161L20.6058 18.2949H25.7537V0.443359H21.8136V12.8527H21.7682L14.1748 0.443359H8.83057V18.2949Z" fill="#343434"/>
<path d="M45.4028 2.61143C43.8856 0.671529 41.3645 -0.0078125 39.3717 -0.0078125C33.8011 -0.0078125 29.7402 3.64554 29.7402 9.37468C29.7402 15.1038 33.8011 18.7571 39.3717 18.7571C41.8174 18.7571 44.3385 17.7758 45.8255 15.6548L42.5496 13.2016C41.7419 14.4093 40.4587 15.1189 38.866 15.1189C36.0204 15.1189 33.8238 12.6958 33.8238 9.36707C33.8238 6.03833 36.0204 3.61535 38.9943 3.61535C40.4587 3.61535 41.591 4.14372 42.376 5.0797L45.4028 2.61143Z" fill="#343434"/>
<path d="M73.0974 18.2949H77.0301V11.3355H79.906C83.665 11.3355 86.5106 10.0523 86.5106 5.863C86.5106 1.62843 83.4309 0.443359 79.7247 0.443359H73.0898L73.0974 18.2949ZM77.0301 3.77213H79.0454C80.5551 3.77213 82.4271 4.02123 82.4271 5.863C82.4271 7.52361 81.0382 8.0067 79.6569 8.0067H77.0376C77.0301 8.0067 77.0301 3.77213 77.0301 3.77213Z" fill="#343434"/>
<path d="M93.7493 18.2949H97.6821V3.9231H102.778V0.443359H88.6626V3.9231H93.7493V18.2949Z" fill="#343434"/>
<path d="M106.038 18.2949H109.97V0.443359H106.038V18.2949Z" fill="#343434"/>
<path d="M113.911 9.37468C113.911 15.0962 117.972 18.7571 123.542 18.7571C129.113 18.7571 133.175 15.1038 133.175 9.37468C133.175 3.64554 129.121 -0.0078125 123.542 -0.0078125C117.972 -0.0078125 113.911 3.64554 113.911 9.37468ZM118.002 9.37468C118.002 6.04588 120.199 3.62289 123.55 3.62289C126.901 3.62289 129.098 6.04588 129.098 9.37468C129.098 12.7035 126.901 15.1264 123.55 15.1264C120.192 15.1189 118.002 12.7035 118.002 9.37468Z" fill="#343434"/>
<path d="M137.168 18.2949H141.101V5.59126H141.153L148.943 18.2949H154.091V0.443359H150.159V12.8527H150.105L142.512 0.443359H137.168V18.2949Z" fill="#343434"/>
<path fill-rule="evenodd" clip-rule="evenodd" d="M47.9546 0.15208V0.144531H66.2817L70.0483 4.21303H51.7061L47.9546 0.15208ZM47.9546 14.5541V14.5466H66.2817L70.0483 18.6151H51.7061L47.9546 14.5541ZM50.7021 7.3531V7.34556H63.7682L67.5347 11.414H54.4611L50.7021 7.3531Z" fill="#343434"/>
</g>
</g>
<defs>
<clipPath id="clip0_13831_30690">
<rect width="154.09" height="19.2612" fill="white"/>
</clipPath>
</defs>
</svg>
