<svg width="138" height="35" viewBox="0 0 138 35" fill="none" xmlns="http://www.w3.org/2000/svg">
<path fill-rule="evenodd" clip-rule="evenodd" d="M41.1758 18.0423V5.0257C41.1758 4.8969 41.2673 4.80517 41.3957 4.80517H42.6804C42.8089 4.80517 42.9005 4.8969 42.9005 5.0257V16.6634H48.3687C48.4971 16.6634 48.5888 16.7553 48.5888 16.8839V18.0423C48.5888 18.1709 48.4971 18.2628 48.3687 18.2628H41.3957C41.2673 18.2628 41.1758 18.1709 41.1758 18.0423ZM53.4332 17.0862C54.6262 17.0862 55.5252 16.3509 56.0024 15.1925V13.5746H54.2041C52.4792 13.5746 51.5432 14.1813 51.5432 15.3764C51.5432 16.3875 52.2223 17.0862 53.4332 17.0862ZM56.0574 18.0423V16.7369C55.415 17.8033 54.3506 18.4651 52.993 18.4651C51.1579 18.4651 49.947 17.2699 49.947 15.4683C49.947 13.593 51.3233 12.4347 54.2041 12.4347H56.0024V11.1661C56.0024 9.93442 55.3417 9.34611 54.0024 9.34611C52.8281 9.34611 52.2409 9.80583 51.9288 10.7066C51.892 10.8352 51.8003 10.8905 51.6717 10.8538L50.5158 10.5412C50.3874 10.5043 50.3139 10.4123 50.3509 10.2838C50.7361 8.90483 51.9288 7.96719 54.0388 7.96719C56.2959 7.96719 57.6353 8.99678 57.6353 11.1295V18.0423C57.6353 18.1709 57.5436 18.2628 57.415 18.2628H56.2777C56.1491 18.2628 56.0574 18.1709 56.0574 18.0423ZM59.3237 16.0751C59.2869 15.9465 59.3419 15.8545 59.4521 15.7992L60.4063 15.3764C60.5349 15.3213 60.6448 15.3764 60.6818 15.5236C60.9751 16.5348 61.9111 17.1231 63.1588 17.1231C64.4247 17.1231 65.2688 16.4979 65.2688 15.5787C65.2688 14.6411 64.7186 14.3284 62.5532 13.7032C60.6448 13.1335 59.5988 12.4715 59.5988 10.7985C59.5988 9.07029 61.067 7.96719 63.1404 7.96719C64.9939 7.96719 66.3517 8.83153 66.7736 10.3022C66.8104 10.431 66.7554 10.5412 66.6266 10.5778L65.654 10.9271C65.5257 10.9824 65.4157 10.9271 65.3791 10.7801C65.0668 9.80583 64.3697 9.32768 63.177 9.32768C61.9477 9.32768 61.2138 9.86091 61.2138 10.7066C61.2138 11.6445 61.8561 11.9016 63.6906 12.4347C65.9109 13.0785 66.8839 13.8687 66.8839 15.505C66.8839 17.2701 65.3973 18.4651 63.1588 18.4651C61.177 18.4651 59.7458 17.5826 59.3237 16.0751ZM74.8296 12.5819V11.8648C74.8296 10.3022 73.9851 9.36438 72.4623 9.36438C70.9207 9.36438 70.0766 10.3022 70.0766 11.8648V12.5819H74.8296ZM68.4805 14.5123V11.9568C68.4805 9.4381 69.9301 7.96724 72.4255 7.96724C74.9025 7.96724 76.3708 9.4381 76.3708 11.9568V13.538C76.3708 13.6666 76.2788 13.7585 76.1504 13.7585H70.0766V14.5123C70.0766 16.1302 71.0127 17.0494 72.5723 17.0494C73.6916 17.0494 74.4439 16.5899 74.8112 15.6891C74.8662 15.5603 74.9579 15.505 75.0865 15.5603L76.1325 15.9096C76.2788 15.9647 76.3158 16.0382 76.2788 16.167C75.7652 17.6563 74.4993 18.4652 72.5723 18.4652C70.0587 18.4652 68.4805 17.0125 68.4805 14.5123ZM78.5546 18.0423V8.39006C78.5546 8.26147 78.6461 8.16953 78.7745 8.16953H79.9488C80.0773 8.16953 80.1691 8.26147 80.1691 8.39006V9.8425C80.7379 8.84978 81.7105 8.04094 83.3071 8.04094C83.454 8.04094 83.5274 8.13267 83.5274 8.26147V9.41986C83.5274 9.54845 83.454 9.64039 83.3071 9.64039C81.7473 9.64039 80.7379 10.2653 80.2061 11.4972V18.0423C80.2061 18.1709 80.1141 18.2628 79.9858 18.2628H78.7745C78.6461 18.2628 78.5546 18.1709 78.5546 18.0423ZM94.1806 16.6634C96.162 16.6634 97.2999 15.6338 97.2999 13.5195V9.54845C97.2999 7.43399 96.162 6.40462 94.1806 6.40462H91.5564V16.6634H94.1806ZM89.8315 18.0423V5.0257C89.8315 4.8969 89.9235 4.80517 90.0518 4.80517H94.1622C97.245 4.80517 99.0249 6.60694 99.0249 9.51159V13.5195C99.0249 16.4611 97.245 18.2628 94.1622 18.2628H90.0518C89.9235 18.2628 89.8315 18.1709 89.8315 18.0423ZM101.502 18.0423V8.39006C101.502 8.26147 101.594 8.16953 101.722 8.16953H102.933C103.062 8.16953 103.154 8.26147 103.154 8.39006V18.0423C103.154 18.1709 103.062 18.2628 102.933 18.2628H101.722C101.594 18.2628 101.502 18.1709 101.502 18.0423ZM101.502 6.38598V4.52913C101.502 4.40054 101.594 4.30859 101.722 4.30859H102.933C103.062 4.30859 103.154 4.40054 103.154 4.52913V6.38598C103.154 6.51478 103.062 6.60694 102.933 6.60694H101.722C101.594 6.60694 101.502 6.51478 101.502 6.38598ZM109.319 13.8137C110.659 13.8137 111.503 13.115 111.503 11.6625C111.503 10.3389 110.787 9.47479 109.301 9.47479C107.888 9.47479 107.081 10.247 107.081 11.6075C107.081 12.968 107.87 13.8137 109.319 13.8137ZM109.521 20.9286C111.503 20.9286 112.365 20.2117 112.365 19.2003C112.365 18.4834 111.962 17.785 110.475 17.785H108.622C107.227 17.785 106.805 18.5019 106.805 19.2372C106.805 20.2483 107.594 20.9286 109.521 20.9286ZM105.264 19.4395C105.264 18.4834 105.741 17.6377 106.769 17.2149C106.31 16.8658 106.071 16.3692 106.071 15.9095C106.071 15.3212 106.439 14.7879 107.099 14.5123C106.09 13.924 105.557 12.9129 105.557 11.589C105.557 9.58495 106.824 8.16959 109.319 8.16959H113.686C113.815 8.16959 113.907 8.26132 113.907 8.39013V9.29112C113.907 9.41971 113.815 9.51165 113.686 9.51165H111.907C112.512 9.95272 112.971 10.7433 112.971 11.8649C112.971 13.7217 111.705 15.0453 109.337 15.0453H109.264H108.493C107.796 15.0453 107.502 15.358 107.502 15.744C107.502 16.1302 107.815 16.4429 108.493 16.4429H110.585C113.026 16.4429 113.962 17.6195 113.962 19.0902C113.962 20.7631 112.732 22.1238 109.448 22.1238C106.42 22.1238 105.264 20.947 105.264 19.4395ZM115.775 18.0423V8.39006C115.775 8.26147 115.866 8.16953 115.995 8.16953H117.206C117.334 8.16953 117.426 8.26147 117.426 8.39006V18.0423C117.426 18.1709 117.334 18.2628 117.206 18.2628H115.995C115.866 18.2628 115.775 18.1709 115.775 18.0423ZM115.775 6.38598V4.52913C115.775 4.40054 115.866 4.30859 115.995 4.30859H117.206C117.334 4.30859 117.426 4.40054 117.426 4.52913V6.38598C117.426 6.51478 117.334 6.60694 117.206 6.60694H115.995C115.866 6.60694 115.775 6.51478 115.775 6.38598ZM120.787 15.689V9.54837H119.43C119.301 9.54837 119.209 9.45642 119.209 9.32762V8.38998C119.209 8.26139 119.301 8.16945 119.43 8.16945H120.787V5.7978C120.787 5.669 120.879 5.57706 121.008 5.57706H122.2C122.329 5.57706 122.421 5.669 122.421 5.7978V8.16945H124.567C124.696 8.16945 124.788 8.26139 124.788 8.38998V9.32762C124.788 9.45642 124.696 9.54837 124.567 9.54837H122.421V15.4498C122.421 16.3324 122.879 16.7737 123.815 16.7737H124.567C124.696 16.7737 124.788 16.8656 124.788 16.9944V18.0422C124.788 18.171 124.696 18.2627 124.567 18.2627H123.576C121.815 18.2627 120.787 17.3067 120.787 15.689ZM129.496 17.0862C130.689 17.0862 131.588 16.3509 132.065 15.1925V13.5746H130.266C128.542 13.5746 127.606 14.1813 127.606 15.3764C127.606 16.3875 128.285 17.0862 129.496 17.0862ZM132.12 18.0423V16.7369C131.477 17.8033 130.413 18.4651 129.055 18.4651C127.22 18.4651 126.009 17.2699 126.009 15.4683C126.009 13.593 127.385 12.4347 130.266 12.4347H132.065V11.1661C132.065 9.93442 131.404 9.34611 130.064 9.34611C128.89 9.34611 128.303 9.80583 127.991 10.7066C127.954 10.8352 127.862 10.8905 127.734 10.8538L126.578 10.5412C126.45 10.5043 126.376 10.4123 126.413 10.2838C126.798 8.90483 127.991 7.96719 130.101 7.96719C132.358 7.96719 133.698 8.99678 133.698 11.1295V18.0423C133.698 18.1709 133.606 18.2628 133.477 18.2628H132.34C132.211 18.2628 132.12 18.1709 132.12 18.0423ZM136.238 18.0423V4.52913C136.238 4.40054 136.33 4.30859 136.458 4.30859H137.669C137.798 4.30859 137.89 4.40054 137.89 4.52913V18.0423C137.89 18.1709 137.798 18.2628 137.669 18.2628H136.458C136.33 18.2628 136.238 18.1709 136.238 18.0423Z" fill="#343434"/>
<path fill-rule="evenodd" clip-rule="evenodd" d="M16.5506 0C13.8674 0 11.6921 2.17928 11.6921 4.86764C11.6921 7.556 13.8674 9.73528 16.5506 9.73528H22.2821V21.6965C22.2821 24.3848 24.4571 26.5641 27.1403 26.5641C29.8235 26.5641 31.9985 24.3848 31.9985 21.6965V12.9098C31.9985 10.2217 29.8235 8.04219 27.1403 8.04219H23.9719V4.86764C23.9719 2.17928 21.7966 0 19.1137 0H16.5506ZM13.3822 4.86764C13.3822 3.11459 14.8005 1.69309 16.5506 1.69309H17.6797H19.1137C20.8633 1.69309 22.2821 3.11459 22.2821 4.86764V8.04219H16.5506C14.8005 8.04219 13.3822 6.6209 13.3822 4.86764ZM23.9719 21.6965V9.73528H27.1403C28.8899 9.73528 30.3087 11.1568 30.3087 12.9098V21.6965C30.3087 23.4497 28.8899 24.871 27.1403 24.871C25.3902 24.871 23.9719 23.4497 23.9719 21.6965ZM4.85823 0C2.17507 0 0 2.17928 0 4.86764V21.6965C0 24.3846 2.17507 26.5641 4.85823 26.5641H8.02664V29.7386C8.02664 32.427 10.2019 34.6063 12.8849 34.6063H18.809C21.4921 34.6063 23.6674 32.427 23.6674 29.7386C23.6674 27.0503 21.4921 24.871 18.809 24.871H9.71646V4.86764C9.71646 2.17928 7.54139 0 4.85823 0ZM1.68982 21.6965V4.86764C1.68982 3.11459 3.10857 1.69309 4.85823 1.69309C6.6081 1.69309 8.02664 3.11459 8.02664 4.86764V24.871H4.85823C3.10857 24.871 1.68982 23.4497 1.68982 21.6965ZM9.71646 29.7386V26.5641H18.809C20.5588 26.5641 21.9776 27.9854 21.9776 29.7386C21.9776 31.4917 20.5588 32.9132 18.809 32.9132H12.8849C11.135 32.9132 9.71646 31.4917 9.71646 29.7386Z" fill="#343434"/>
<path fill-rule="evenodd" clip-rule="evenodd" d="M50.1874 30.5294C50.99 30.5294 51.6402 29.6888 51.6402 28.1562C51.6402 26.639 50.99 25.784 50.1874 25.784C49.385 25.784 48.7348 26.639 48.7348 28.1562C48.7348 29.6786 49.385 30.5294 50.1874 30.5294ZM47.2441 28.1565C47.2441 26.0388 48.5616 24.9785 50.1874 24.9785C51.8131 24.9785 53.1308 26.0388 53.1308 28.1565C53.1308 30.2783 51.8131 31.335 50.1874 31.335C48.5616 31.335 47.2441 30.2885 47.2441 28.1565Z" fill="#343434"/>
<path fill-rule="evenodd" clip-rule="evenodd" d="M41.5391 25.209V31.1009H42.5607V27.1432L45.7165 31.1009H46.5764V25.209H45.6029V28.4573L42.9826 25.209H41.5391Z" fill="#343434"/>
<path fill-rule="evenodd" clip-rule="evenodd" d="M74.0924 28.6346L74.8387 26.7885L75.5847 28.6346H74.0924ZM74.4575 25.209L72.0723 31.1009H73.1026L73.7602 29.4805H75.9253L76.5909 31.1009H78.2617L75.8522 25.209H74.4575Z" fill="#343434"/>
<path fill-rule="evenodd" clip-rule="evenodd" d="M64.8604 29.0693C64.8329 29.6091 64.7913 30.1434 64.1948 30.3427C63.9294 30.4317 63.4404 30.4304 63.1649 30.3188C63.0338 30.2656 62.9513 30.2198 62.8481 30.1171C62.6498 29.9207 62.5718 29.5032 62.564 29.2307V25.209H61.0312V29.0693C61.0463 29.6025 61.1313 30.1389 61.4772 30.569C62.0713 31.3056 63.1602 31.4113 64.0404 31.3017C64.5879 31.234 65.0674 31.0515 65.4522 30.6488C65.7184 30.3702 65.8833 29.9309 65.9311 29.5531C65.9586 29.3335 65.9631 29.297 65.9631 29.0693V25.209H64.8604V29.0693Z" fill="#343434"/>
<path fill-rule="evenodd" clip-rule="evenodd" d="M68.478 26.039C69.1531 26.039 69.8234 25.9244 70.1171 26.6275C70.233 26.9055 70.2406 27.5361 69.9706 27.8039C69.649 28.1234 69.1559 28.1541 68.7298 28.191L70.3034 31.1009H71.9173L70.4899 28.5053C71.3411 28.2066 71.7407 27.7247 71.6987 26.8048C71.6532 25.8098 70.8151 25.209 69.8574 25.209H66.9531V31.1009H68.478V26.039Z" fill="#343434"/>
<path fill-rule="evenodd" clip-rule="evenodd" d="M58.5493 31.1009L56.2778 25.209H55.0851L52.8789 31.1009H53.9496L55.4339 27.119L56.9428 31.1009H58.5493Z" fill="#343434"/>
<path fill-rule="evenodd" clip-rule="evenodd" d="M58.6226 25.209H57.3732L56.9922 26.2163L57.5356 27.6268L57.7303 27.119L59.1986 31.1009H60.8943L58.6226 25.209Z" fill="#343434"/>
<path fill-rule="evenodd" clip-rule="evenodd" d="M55.8488 29.0469L55.0859 31.1027H56.0594L56.3429 30.3281L55.8488 29.0469Z" fill="#343434"/>
<path fill-rule="evenodd" clip-rule="evenodd" d="M85.8503 30.3357C85.3921 30.9615 84.6428 31.2204 83.9429 31.2204C82.1694 31.2204 81.1113 29.7684 81.1113 28.2162C81.1113 26.4805 82.0609 24.9785 83.9429 24.9785C85.2424 24.9785 86.2751 25.5626 86.5001 26.9561H85.7089C85.5505 26.0547 84.8259 25.646 83.9429 25.646C82.5024 25.646 81.9027 26.8976 81.9027 28.1745C81.9027 29.4178 82.6189 30.5529 83.9429 30.5529C85.1674 30.5529 85.9004 29.6932 85.8503 28.6085H83.9516V27.9406H86.5582V31.0785H86.0586L85.8503 30.3357Z" fill="#343434"/>
<path fill-rule="evenodd" clip-rule="evenodd" d="M87.5859 26.7636H88.2522V27.673H88.2689C88.6104 26.9807 89.0852 26.6386 89.8513 26.6634V27.4146C88.7104 27.4146 88.2938 28.0654 88.2938 29.1587V31.0779H87.5859V26.7636Z" fill="#343434"/>
<path fill-rule="evenodd" clip-rule="evenodd" d="M92.0924 30.553C92.834 30.553 93.4334 29.9687 93.4334 28.9258C93.4334 27.8741 92.834 27.2903 92.0924 27.2903C91.3511 27.2903 90.7517 27.8741 90.7517 28.9258C90.7517 29.9687 91.3511 30.553 92.0924 30.553ZM92.0924 26.6641C93.4586 26.6641 94.1832 27.657 94.1832 28.9258C94.1832 30.1856 93.4586 31.1788 92.0924 31.1788C90.7265 31.1788 90.002 30.1856 90.002 28.9258C90.002 27.657 90.7265 26.6641 92.0924 26.6641Z" fill="#343434"/>
<path fill-rule="evenodd" clip-rule="evenodd" d="M98.5842 31.078H97.9179V30.3937H97.9012C97.6012 30.9278 97.1183 31.1782 96.5019 31.1782C95.3695 31.1782 95.0195 30.5272 95.0195 29.6007V26.7637H95.7274V29.6844C95.7274 30.2102 96.0604 30.5524 96.6019 30.5524C97.4598 30.5524 97.8763 29.9766 97.8763 29.2004V26.7637H98.5842V31.078Z" fill="#343434"/>
<path fill-rule="evenodd" clip-rule="evenodd" d="M101.677 27.2903C100.727 27.2903 100.361 28.108 100.361 28.9173C100.361 29.7687 100.744 30.553 101.718 30.553C102.684 30.553 103.009 29.7268 103.009 28.884C103.009 28.0748 102.593 27.2903 101.677 27.2903ZM99.6777 26.7645H100.385V27.3488H100.402C100.635 26.8727 101.185 26.6641 101.776 26.6641C103.101 26.6641 103.759 27.7157 103.759 28.9338C103.759 30.1526 103.109 31.1788 101.793 31.1788C101.352 31.1788 100.719 31.012 100.402 30.5028H100.385V32.7308H99.6777V26.7645Z" fill="#343434"/>
</svg>
