<svg width="142" height="29" viewBox="0 0 142 29" fill="none" xmlns="http://www.w3.org/2000/svg">
<path d="M115.273 6.5637C113.002 6.5637 110.974 7.48972 109.515 9.01972L98.9732 18.8842C97.9997 19.7701 96.7837 20.2532 95.5268 20.2129C95.4458 20.2129 95.3648 20.2129 95.2831 20.2129C92.4855 20.0116 90.2149 17.7166 90.0127 14.9384C89.8908 13.3279 90.4586 11.7979 91.5534 10.6302C92.6482 9.46266 94.1481 8.81841 95.7699 8.81841C97.1078 8.81841 98.4463 9.30161 99.4594 10.1471C99.9462 10.5497 100.676 10.5095 101.081 10.0263C101.487 9.54318 101.446 8.81841 100.96 8.41579C99.5002 7.20788 97.6756 6.52344 95.7699 6.52344C93.5401 6.52344 91.4316 7.44945 89.8908 9.05998C88.3501 10.7108 87.5794 12.8045 87.7421 15.0592C88.026 18.9648 91.1885 22.1456 95.1211 22.4274C95.2429 22.4274 95.3648 22.4274 95.4458 22.4274C95.5268 22.4274 95.6078 22.4274 95.6889 22.4274C97.4325 22.4274 99.2163 21.7027 100.554 20.4545L107.326 14.1332C107.326 14.254 107.326 14.3345 107.326 14.4553C107.326 18.844 110.934 22.4274 115.354 22.4274C116.772 22.4274 118.192 22.065 119.408 21.3403C119.935 21.0182 120.138 20.3337 119.814 19.7701C119.489 19.2466 118.8 19.0453 118.232 19.3674C117.34 19.8908 116.367 20.1324 115.313 20.1324C112.15 20.1324 109.556 17.5958 109.556 14.415C109.556 12.9253 110.164 11.5563 111.096 10.5095L111.258 10.3484C111.299 10.3082 111.299 10.3082 111.339 10.2679C112.353 9.30161 113.772 8.69763 115.273 8.69763C118.435 8.69763 121.03 11.2342 121.03 14.415V21.2598C121.03 21.904 121.557 22.3871 122.165 22.3871C122.814 22.3871 123.3 21.8637 123.3 21.2598V14.415C123.3 10.1471 119.692 6.5637 115.273 6.5637Z" fill="#343434"/>
<path d="M133.925 6.5625C132.019 6.5625 130.275 7.20675 128.856 8.3744V7.81067C128.856 7.16649 128.329 6.68335 127.721 6.68335C127.072 6.68335 126.586 7.20675 126.586 7.81067V27.137C126.586 27.7813 127.113 28.2644 127.721 28.2644C128.37 28.2644 128.856 27.741 128.856 27.137V20.6949C130.275 21.8626 132.059 22.5068 133.925 22.5068C138.344 22.5068 141.953 18.9234 141.953 14.5347C141.912 10.146 138.344 6.5625 133.925 6.5625ZM133.925 20.2118C132.424 20.2118 131.005 19.6481 129.951 18.6415C129.505 18.1986 129.14 17.7155 128.856 17.1921V11.7968C128.938 11.6357 129.14 11.3539 129.343 11.072C130.437 9.62251 132.1 8.77701 133.925 8.77701C137.087 8.77701 139.682 11.3136 139.682 14.4944C139.641 17.6752 137.087 20.2118 133.925 20.2118Z" fill="#343434"/>
<path d="M12.1232 22.4266H7.58205C3.40585 22.4266 0 19.0445 0 14.8974V1.12737C0 0.483159 0.527095 0 1.13528 0C1.74347 0 2.27056 0.523422 2.27056 1.12737V14.8974C2.27056 17.7964 4.66277 20.1719 7.58205 20.1719H12.0827C12.7314 20.1719 13.2179 20.6953 13.2179 21.2992C13.2585 21.9032 12.7314 22.4266 12.1232 22.4266Z" fill="#343434"/>
<path d="M21.3674 22.4271C16.9479 22.4271 13.2988 18.8437 13.2988 14.4147C13.2988 9.98575 16.9074 6.40234 21.3674 6.40234C23.5163 6.40234 25.5436 7.24784 27.0439 8.73758C27.4898 9.18052 27.4898 9.90523 27.0439 10.3481L18.367 18.9645C18.2859 19.045 18.2048 19.0852 18.1237 19.1658C19.0563 19.7698 20.151 20.1321 21.3674 20.1321C22.6243 20.1321 23.8002 19.7295 24.7732 19.0047C25.3004 18.6424 25.9896 18.7229 26.3546 19.2463C26.7194 19.7698 26.6383 20.4542 26.1113 20.8166C24.7327 21.8634 23.0703 22.4271 21.3674 22.4271ZM21.3674 8.69732C18.2048 8.69732 15.6099 11.2742 15.6099 14.4147C15.6099 15.5824 15.9748 16.7097 16.583 17.6358C16.6236 17.5552 16.7047 17.4747 16.7858 17.3942L24.5706 9.66366C23.5974 9.01947 22.5027 8.69732 21.3674 8.69732Z" fill="#343434"/>
<path d="M43.2224 6.64573C41.6006 6.64573 40.1003 7.4107 39.1678 8.57835C38.1947 7.37044 36.7351 6.60547 35.0727 6.60547C33.8158 6.60547 32.6399 7.04835 31.7479 7.81338C31.5452 7.65233 31.3019 7.53155 31.0181 7.53155C30.3693 7.53155 29.8828 8.05495 29.8828 8.65887V21.3016C29.8828 21.9458 30.4099 22.429 31.0181 22.429C31.6262 22.429 32.1534 21.9055 32.1534 21.3016V11.7994C32.1534 10.1889 33.4914 8.90044 35.0727 8.90044C36.6945 8.90044 37.992 10.2291 37.992 11.7994V21.2613C37.992 21.9055 38.5191 22.3887 39.1273 22.3887C39.776 22.3887 40.2625 21.8652 40.2625 21.2613V11.8397C40.2625 10.2291 41.6006 8.94077 43.1818 8.94077C44.8036 8.94077 46.1011 10.2694 46.1011 11.8397V21.3016C46.1011 21.9458 46.6282 22.429 47.2364 22.429C47.8851 22.429 48.3717 21.9055 48.3717 21.3016V11.8397C48.4528 8.98103 46.1011 6.64573 43.2224 6.64573Z" fill="#343434"/>
<path d="M58.1421 6.64453C56.5203 6.64453 55.0201 7.24852 53.8848 8.25512C53.7226 7.85244 53.3171 7.53035 52.8306 7.53035C52.1818 7.53035 51.6953 8.05375 51.6953 8.65774V21.3004C51.6953 21.9446 52.2224 22.4278 52.8306 22.4278C53.4793 22.4278 53.9659 21.9044 53.9659 21.3004V13.0464C53.9659 13.0464 53.9659 13.0464 53.9659 13.0062C53.9659 10.7111 55.831 8.85904 58.1421 8.85904C60.4532 8.85904 62.3183 10.7111 62.3183 13.0062V21.3004C62.3183 21.9446 62.8452 22.4278 63.4538 22.4278C64.102 22.4278 64.5888 21.9044 64.5888 21.3004V13.0464C64.5888 9.50323 61.7101 6.64453 58.1421 6.64453Z" fill="#343434"/>
<path d="M81.1334 22.429C81.0932 22.429 81.0932 22.429 81.0932 22.429H75.3354C74.6865 22.429 74.2004 21.9055 74.2004 21.3016C74.2004 20.6573 74.7274 20.1742 75.3354 20.1742H81.1334C81.1742 20.1742 82.2282 20.1742 82.877 19.53C83.242 19.1676 83.4448 18.6039 83.4448 17.8791C83.4448 17.1544 83.242 16.5908 82.877 16.2284C82.2282 15.5842 81.1742 15.5842 81.1742 15.5842H77.9709C77.7278 15.5842 75.9032 15.5439 74.6055 14.2555C73.8354 13.4905 73.4297 12.4436 73.4297 11.1955C73.4297 7.85364 76.3899 6.72625 77.9307 6.60547C77.9709 6.60547 77.9709 6.60547 78.0117 6.60547H83.6069C84.2557 6.60547 84.7419 7.12887 84.7419 7.73286C84.7419 8.33678 84.2149 8.86018 83.6069 8.86018H78.0927C77.6468 8.90044 75.7411 9.2226 75.7411 11.1955C75.7411 11.8397 75.9032 12.3229 76.2681 12.645C76.9169 13.2891 78.0117 13.3294 78.0519 13.3294H81.2553C81.4173 13.3294 83.242 13.3294 84.5798 14.6178C85.4315 15.4231 85.8367 16.5103 85.8367 17.8791C85.8367 19.2481 85.4315 20.3352 84.5798 21.1405C83.2011 22.3484 81.4983 22.429 81.1334 22.429Z" fill="#343434"/>
<path d="M68.9676 22.4264C68.3188 22.4264 67.832 21.903 67.832 21.299V8.01215C67.832 7.3679 68.359 6.88477 68.9676 6.88477C69.5757 6.88477 70.1026 7.40817 70.1026 8.01215V21.299C70.1026 21.903 69.6159 22.4264 68.9676 22.4264Z" fill="#343434"/>
<path d="M67.4667 4.0653C67.3046 4.0653 67.1017 3.98477 66.9805 3.86398C66.6966 3.58214 66.6966 3.1795 66.9805 2.89765L68.5213 1.36764C68.8045 1.08579 69.2103 1.08579 69.4942 1.36764L70.9941 2.85739C71.278 3.13923 71.278 3.54188 70.9941 3.82372C70.7102 4.10556 70.3051 4.10556 70.0212 3.82372L69.0074 2.81713L67.9534 3.86398C67.8316 4.02504 67.6287 4.0653 67.4667 4.0653Z" fill="#343434"/>
</svg>
