<svg width="147" height="47" viewBox="0 0 147 47" fill="none" xmlns="http://www.w3.org/2000/svg">
<path d="M23.92 42.984L28.16 31.768H29.824L34.192 42.984H32.832L31.216 38.952H26.8L25.312 42.984H23.92ZM30.912 37.864L29.168 33.576C29.056 33.32 29.104 32.936 29.104 32.648H28.864C28.864 32.936 28.912 33.32 28.8 33.576L27.072 37.864H30.912ZM36.7456 35.752C37.4336 34.936 38.1056 34.76 39.9136 34.76V35.832C38.0896 35.832 36.3456 36.408 36.3456 38.632V43H35.2256V35H36.3456V35.624C36.3456 36.008 36.1536 36.472 36.0256 36.84L36.2496 36.92C36.3776 36.552 36.4896 36.056 36.7456 35.752ZM42.9513 41.064V36.12H41.3513V35.048H42.9513V32.52H44.0713V35.048H46.1513V36.12H44.0713V41.064C44.0713 41.736 44.3753 41.928 45.1273 41.928H46.0713V43H44.7913C43.7033 43 42.9513 42.248 42.9513 41.064ZM49.606 35.752C50.358 34.968 51.19 34.76 52.422 34.76C54.086 34.76 55.366 35.688 55.366 37.512V43H54.246V38.312C54.246 36.536 53.558 35.752 52.102 35.752C50.518 35.752 49.19 36.552 49.19 38.312V43H48.07V31.4H49.19V35.608C49.19 36.008 48.982 36.488 48.854 36.856L49.078 36.936C49.222 36.568 49.334 36.04 49.606 35.752ZM62.6051 42.376C61.8371 43.128 61.2131 43.24 60.1251 43.24C58.6851 43.24 57.2931 42.296 57.2931 40.488V35H58.4131V39.688C58.4131 41.368 59.1331 42.168 60.2051 42.168C61.3891 42.168 62.9731 41.448 62.9731 39.688V35H64.0931V43H62.9731V42.536C62.9891 42.184 63.1971 41.784 63.3251 41.464L63.1011 41.368C62.9731 41.688 62.8451 42.136 62.6051 42.376ZM68.0125 35.752C68.7005 34.936 69.3725 34.76 71.1805 34.76V35.832C69.3565 35.832 67.6125 36.408 67.6125 38.632V43H66.4925V35H67.6125V35.624C67.6125 36.008 67.4205 36.472 67.2925 36.84L67.5165 36.92C67.6445 36.552 67.7565 36.056 68.0125 35.752ZM76.7781 43V31.8H77.9781V36.744H84.7621V31.8H85.9621V43H84.7621V37.832H77.9781V43H76.7781ZM94.3766 42.184C93.7526 42.856 92.8726 43.256 91.7686 43.256C89.3526 43.256 87.6406 41.336 87.6406 38.952C87.6406 36.568 89.3526 34.76 91.7686 34.76C92.8566 34.76 93.7366 35.128 94.3606 35.768C94.6966 36.104 94.8406 36.744 95.0006 37.192L95.2246 37.112C95.0646 36.664 94.8246 36.088 94.7926 35.608L94.7606 35H95.8806V43H94.7606L94.7926 42.344C94.8246 41.864 95.0486 41.272 95.2086 40.824L94.9846 40.744C94.8246 41.192 94.6966 41.832 94.3766 42.184ZM88.7606 38.952C88.7606 40.712 89.7846 42.184 91.7686 42.184C93.6726 42.184 94.6646 40.6 94.7606 38.952C94.7606 37 93.6726 35.832 91.7686 35.832C89.7846 35.832 88.7606 37.192 88.7606 38.952ZM98.2025 35L100.971 41.096C101.115 41.416 101.099 41.896 101.099 42.248H101.339C101.339 41.88 101.323 41.416 101.467 41.096L104.219 35H105.419L101.851 42.984C101.627 43.48 101.435 43.88 101.211 44.392C100.555 45.944 100.059 47 98.6185 47H97.2585V45.928H98.2985C99.2745 45.928 99.4985 45.384 99.9785 44.344L100.603 43L97.0025 35H98.2025ZM110.117 43.256C107.317 43.256 105.813 41.336 105.813 38.952C105.813 36.568 107.477 34.76 109.813 34.76C112.229 34.76 113.733 36.664 113.717 38.808C113.717 38.968 113.717 39.352 113.701 39.48H106.965C106.965 40.6 107.957 42.184 110.037 42.184C111.381 42.184 112.197 41.384 112.389 40.712H113.541C113.317 41.544 112.293 43.256 110.117 43.256ZM106.965 38.408H112.501C112.501 37.032 111.493 35.832 109.829 35.832C108.133 35.832 106.965 37.16 106.965 38.408ZM121.964 40.776C121.964 42.472 120.78 43.256 118.636 43.256C116.828 43.256 114.684 42.28 114.684 40.76H115.82C115.82 41.432 117.244 42.184 118.652 42.184C119.932 42.184 120.796 41.848 120.796 40.888C120.796 38.488 114.812 40.296 114.812 37.048C114.812 35.832 116.172 34.76 118.172 34.76C119.916 34.76 121.724 35.48 121.724 36.92H120.588C120.588 36.216 119.5 35.832 118.172 35.832C116.892 35.832 115.98 36.328 115.98 37.08C115.98 38.824 121.964 37.464 121.964 40.776Z" fill="#343434"/>
<path d="M48.0686 4.90625L50.2914 19.1849H50.3387L58.5491 4.90625H61.6054L58.0712 21.5105H55.954L59.3493 6.97622H59.3021L50.8471 21.5105H48.7299L46.5683 6.97622H46.521L43.6231 21.5105H41.5059L44.9845 4.90625H48.0686Z" fill="#343434"/>
<path d="M62.8318 11.3926C63.1418 10.9145 63.5408 10.5004 64.0071 10.1729C64.4874 9.84075 65.0226 9.59618 65.5881 9.45048C66.1887 9.29442 66.8069 9.2169 67.4274 9.21987C67.9861 9.21679 68.544 9.26328 69.0945 9.35879C69.5829 9.43844 70.0532 9.604 70.4838 9.84781C70.8815 10.0725 71.2145 10.396 71.4507 10.7869C71.7058 11.2447 71.8307 11.7636 71.8119 12.2873C71.808 12.6612 71.7651 13.0337 71.6841 13.3987C71.5979 13.7933 71.5174 14.1545 71.4396 14.4795L70.6699 17.7582C70.6255 18.0082 70.5588 18.2861 70.4727 18.5917C70.3914 18.8793 70.3484 19.1764 70.3448 19.4753C70.3231 19.6827 70.3818 19.8905 70.5088 20.056C70.5634 20.1111 70.6289 20.1541 70.7012 20.1824C70.7735 20.2106 70.8508 20.2234 70.9283 20.2199C71.0354 20.2172 71.1414 20.1975 71.2423 20.1616L71.5563 20.056L71.2534 21.5202C71.0601 21.5941 70.8613 21.6527 70.6588 21.6953C70.4569 21.7451 70.25 21.7722 70.042 21.7759C69.8174 21.7922 69.5918 21.7613 69.3798 21.6852C69.1678 21.6091 68.9741 21.4895 68.8111 21.3341C68.6664 21.1675 68.5618 20.9699 68.5054 20.7565C68.449 20.5431 68.4424 20.3196 68.486 20.1032L68.4388 20.056C68.0316 20.6031 67.4964 21.042 66.8801 21.3341C66.1006 21.6591 65.2594 21.8099 64.4156 21.7759C63.9332 21.7804 63.4522 21.7224 62.9846 21.6036C62.5592 21.499 62.1637 21.2977 61.8287 21.0153C61.4938 20.7329 61.2286 20.377 61.0536 19.9754C60.8518 19.4774 60.7571 18.9425 60.7757 18.4055C60.7757 17.522 60.9647 16.8301 61.3314 16.3356C61.7106 15.8352 62.2146 15.4433 62.7929 15.1992C63.4135 14.9345 64.0682 14.7587 64.7379 14.6768C65.451 14.5823 66.141 14.5046 66.8078 14.4434C67.3357 14.3962 67.7886 14.3462 68.1693 14.2906C68.4962 14.2494 68.8143 14.1555 69.1112 14.0128C69.351 13.9022 69.5467 13.7144 69.6669 13.4793C69.7971 13.1781 69.857 12.8513 69.8419 12.5235C69.8554 12.2417 69.7732 11.9636 69.6085 11.7344C69.4551 11.5318 69.2562 11.3681 69.0278 11.2565C68.7823 11.1363 68.52 11.0539 68.2499 11.012C67.9742 10.9675 67.6955 10.9443 67.4163 10.9425C67.0428 10.942 66.6702 10.9811 66.3049 11.0592C65.9561 11.1309 65.6218 11.2605 65.3158 11.4427C65.0258 11.6168 64.7728 11.8462 64.5712 12.1178C64.3617 12.4145 64.2282 12.7579 64.1822 13.1181H62.2067C62.2853 12.5039 62.4987 11.9147 62.8318 11.3926ZM63.3875 19.6364C63.8364 19.9187 64.3577 20.0644 64.8879 20.056C66.455 20.056 67.5793 19.529 68.261 18.475C68.5809 18.0383 68.8061 17.5395 68.9223 17.0107C69.039 16.4828 69.1668 15.9383 69.3085 15.3826H69.2612C68.9429 15.5991 68.582 15.745 68.2026 15.8104C67.7525 15.8999 67.2981 15.9667 66.8412 16.0105C66.3605 16.0549 65.877 16.1133 65.388 16.1828C64.938 16.2428 64.4967 16.3566 64.0738 16.5217C63.7076 16.6623 63.3807 16.8892 63.1208 17.183C62.854 17.5241 62.7145 17.9476 62.7262 18.3805C62.7152 18.6289 62.771 18.8756 62.8878 19.0951C63.0046 19.3145 63.1781 19.4986 63.3903 19.6281L63.3875 19.6364Z" fill="#343434"/>
<path d="M74.6832 17.14C74.6761 17.5686 74.7633 17.9936 74.9388 18.3847C75.0996 18.7356 75.3381 19.0453 75.6362 19.2905C75.9343 19.5331 76.2729 19.7213 76.6364 19.8462C77.0105 19.9775 77.4042 20.0442 77.8006 20.0435C78.5724 20.074 79.3348 19.8664 79.9845 19.4489C80.579 19.0253 81.0267 18.4271 81.2654 17.7373H83.2409C83.1033 18.3636 82.8508 18.959 82.4963 19.4933C82.1688 19.9858 81.7512 20.4119 81.2654 20.7492C80.7751 21.0874 80.2326 21.3428 79.6594 21.505C79.0552 21.6784 78.4293 21.7645 77.8006 21.7606C76.9516 21.7886 76.1065 21.6341 75.3222 21.3077C74.7174 21.045 74.1805 20.6478 73.7524 20.1463C73.3741 19.69 73.0966 19.1587 72.9383 18.5876C72.7881 18.054 72.7105 17.5026 72.7077 16.9482C72.6953 15.8773 72.8644 14.8119 73.2078 13.7974C73.5055 12.9051 73.962 12.0739 74.5554 11.344C75.095 10.6818 75.7694 10.142 76.5336 9.7603C77.2657 9.39319 78.0736 9.20286 78.8926 9.2046C80.6597 9.2046 81.9508 9.66768 82.7658 10.5938C83.5808 11.52 83.9874 12.8296 83.9855 14.5226C83.9872 14.8186 83.964 15.1141 83.9161 15.4062C83.8698 15.6859 83.8309 15.9109 83.7994 16.0814H74.7415C74.6975 16.4324 74.678 16.7862 74.6832 17.14ZM81.9267 13.1028C81.8498 12.7105 81.6917 12.3386 81.4627 12.0109C81.2322 11.6886 80.9284 11.4258 80.5763 11.244C80.1479 11.0422 79.677 10.9469 79.2038 10.9662C78.675 10.9602 78.1498 11.0545 77.6561 11.244C77.2149 11.4033 76.8063 11.6415 76.4503 11.947C76.1082 12.259 75.8183 12.6239 75.5917 13.0278C75.3576 13.4436 75.1712 13.8844 75.036 14.342H82.0128C82.042 13.927 82.013 13.5099 81.9267 13.1028Z" fill="#343434"/>
<path d="M90.3006 4.90625L86.8219 21.5105H84.877L88.3417 4.90625H90.3006Z" fill="#343434"/>
<path d="M97.2195 11.4795C96.6922 11.1204 96.0651 10.9366 95.4274 10.9543C95.1242 10.9559 94.8215 10.9791 94.5216 11.0238C94.233 11.0628 93.952 11.1453 93.688 11.2683C93.4583 11.3777 93.2561 11.5372 93.0962 11.7351C92.933 11.9523 92.8505 12.2195 92.8628 12.4909C92.8597 12.7575 92.9592 13.0151 93.1407 13.2105C93.3473 13.4352 93.5907 13.6231 93.8603 13.7662C94.1891 13.95 94.5309 14.1097 94.8828 14.2441C95.2634 14.3913 95.6469 14.5414 96.0359 14.697C96.4248 14.8526 96.8305 15.0526 97.2084 15.2527C97.5713 15.4423 97.9116 15.6725 98.2225 15.939C98.5151 16.195 98.7589 16.5018 98.9422 16.8447C99.1346 17.2229 99.2301 17.643 99.22 18.0673C99.2378 18.6672 99.0845 19.2599 98.7782 19.776C98.4914 20.2415 98.1017 20.635 97.639 20.9263C97.1569 21.229 96.6256 21.4452 96.0692 21.5654C95.4932 21.6972 94.9041 21.7634 94.3132 21.7627C93.6651 21.7687 93.0184 21.7025 92.3849 21.5654C91.8359 21.4542 91.3156 21.231 90.8568 20.9097C90.4204 20.5863 90.0725 20.1582 89.8454 19.6649C89.5786 19.0522 89.4514 18.3879 89.4731 17.72H91.418C91.3763 18.102 91.4457 18.4879 91.6181 18.8314C91.7743 19.1267 92.0064 19.3751 92.2905 19.551C92.5984 19.7373 92.9371 19.8671 93.2907 19.9344C93.6849 20.0135 94.0862 20.0526 94.4882 20.0511C94.8164 20.0509 95.1438 20.0202 95.4663 19.9594C95.7755 19.9021 96.0737 19.7961 96.3498 19.6455C96.6037 19.5059 96.8223 19.3102 96.9889 19.0731C97.159 18.8199 97.2446 18.5194 97.2334 18.2145C97.2385 17.9367 97.1394 17.6671 96.9555 17.4588C96.7462 17.2359 96.5023 17.0482 96.2331 16.9031C95.9093 16.7171 95.5711 16.5573 95.2218 16.4252C94.8411 16.2779 94.4577 16.1196 94.0715 15.9473C93.6853 15.775 93.2768 15.6222 92.8962 15.436C92.529 15.2594 92.1854 15.0372 91.8737 14.7748C91.5769 14.5264 91.3316 14.2225 91.1513 13.8801C90.9634 13.5131 90.868 13.1059 90.8734 12.6937C90.8638 12.1717 90.9964 11.6569 91.2569 11.2044C91.5093 10.7734 91.8549 10.4041 92.2682 10.1236C92.7121 9.82182 93.2019 9.59382 93.7186 9.44841C94.2513 9.29402 94.8033 9.21636 95.3579 9.21779C95.914 9.21658 96.4682 9.28282 97.0083 9.41507C97.5302 9.53567 98.0237 9.75648 98.4615 10.0652C98.8948 10.3744 99.2498 10.7807 99.4978 11.2516C99.7757 11.8022 99.9113 12.4135 99.8924 13.0299H97.9169C97.9504 12.7327 97.9034 12.4319 97.7807 12.1591C97.658 11.8863 97.4641 11.6516 97.2195 11.4795Z" fill="#343434"/>
<path d="M108.38 9.48795L108.007 11.2328H105.612L104.123 18.3013C104.109 18.4402 104.093 18.5792 104.079 18.6986C104.061 18.8294 104.053 18.9613 104.054 19.0932C104.041 19.2239 104.069 19.3552 104.134 19.4694C104.198 19.5837 104.296 19.6754 104.415 19.7322C104.676 19.8537 104.961 19.9136 105.248 19.9073C105.443 19.908 105.638 19.8884 105.829 19.8489C106.017 19.8096 106.203 19.7585 106.385 19.6961L106.037 21.5105L105.34 21.5938C105.107 21.616 104.873 21.6272 104.643 21.6272C104.292 21.6284 103.942 21.6015 103.595 21.5466C103.295 21.5005 103.007 21.3977 102.745 21.2437C102.506 21.0969 102.307 20.8937 102.164 20.6519C102.007 20.3587 101.931 20.0286 101.945 19.6961C101.944 19.5334 101.955 19.371 101.978 19.2099C102.003 19.0543 102.028 18.8848 102.059 18.6986L103.637 11.2328H101.611L101.984 9.48795H104.009L104.748 5.92871H106.727L105.982 9.48795H108.38Z" fill="#343434"/>
<path d="M112.427 9.48858L111.846 12.0698H111.893C112.338 11.2715 112.943 10.5743 113.672 10.022C114.423 9.47122 115.336 9.18581 116.267 9.21073C116.383 9.2112 116.499 9.20284 116.614 9.18572C116.731 9.17101 116.85 9.1795 116.964 9.21073L116.497 11.3252C116.397 11.3075 116.296 11.3001 116.194 11.3029H115.917C115.669 11.3029 115.466 11.3029 115.311 11.3029C115.114 11.318 114.92 11.3534 114.73 11.4085C114.2 11.5409 113.704 11.7864 113.277 12.1281C112.842 12.4762 112.467 12.8929 112.166 13.3618C111.889 13.7819 111.679 14.242 111.543 14.726C111.391 15.2465 111.267 15.7318 111.171 16.182L110.029 21.5111H108.084L110.585 9.48858H112.427Z" fill="#343434"/>
<path d="M116.419 13.9319C116.703 13.0487 117.153 12.2274 117.744 11.5119C118.326 10.8152 119.047 10.2474 119.861 9.84479C120.74 9.4142 121.708 9.19896 122.687 9.21685C124.315 9.21685 125.555 9.63918 126.407 10.4838C127.259 11.3285 127.685 12.5649 127.685 14.1931C127.69 15.1536 127.545 16.1089 127.255 17.0244C126.972 17.9078 126.526 18.7304 125.94 19.45C125.369 20.1531 124.655 20.727 123.846 21.1338C122.971 21.5646 122.006 21.7799 121.031 21.7617C120.31 21.774 119.594 21.6495 118.919 21.395C118.323 21.1725 117.783 20.8236 117.335 20.3723C116.887 19.9209 116.542 19.3778 116.324 18.7804C116.088 18.1364 115.97 17.4548 115.977 16.7688C115.971 15.8056 116.12 14.8476 116.419 13.9319ZM118.778 19.1416C119.333 19.7455 120.156 20.0474 121.245 20.0474C121.926 20.0623 122.595 19.8684 123.162 19.4917C123.712 19.1183 124.184 18.6407 124.551 18.0858C124.932 17.5172 125.223 16.8929 125.413 16.2353C125.599 15.6244 125.697 14.9901 125.704 14.3515C125.705 13.9031 125.643 13.4569 125.518 13.0262C125.404 12.63 125.207 12.2626 124.94 11.9481C124.667 11.6391 124.329 11.3935 123.951 11.2285C123.507 11.0355 123.027 10.9407 122.542 10.9506C121.836 10.935 121.141 11.1283 120.545 11.5063C119.974 11.8741 119.484 12.3532 119.103 12.915C118.712 13.4864 118.417 14.1181 118.23 14.7849C118.048 15.4173 117.955 16.0719 117.952 16.7299C117.904 17.6099 118.199 18.4744 118.775 19.1416H118.778Z" fill="#343434"/>
<path d="M132.73 9.48931L132.286 11.2787L132.333 11.3259C132.832 10.6847 133.463 10.1579 134.183 9.78105C134.903 9.40104 135.706 9.20535 136.52 9.21146C137.201 9.19309 137.873 9.36124 138.465 9.6977C138.751 9.88467 138.993 10.1298 139.178 10.4171C139.362 10.7043 139.484 11.0273 139.535 11.3648C140.006 10.7084 140.623 10.1709 141.338 9.79494C142.048 9.40694 142.844 9.20344 143.652 9.20313C144.067 9.20285 144.481 9.25323 144.883 9.35316C145.267 9.44531 145.633 9.60223 145.964 9.81717C146.281 10.028 146.541 10.3145 146.72 10.6507C146.916 11.0394 147.012 11.4713 146.998 11.9066C146.993 12.313 146.954 12.7182 146.881 13.118C146.803 13.5681 146.725 13.9516 146.648 14.3044L145.147 21.5118H143.172L144.839 13.8849C144.886 13.6987 144.928 13.4764 144.967 13.2208C145.002 13.0095 145.021 12.7959 145.025 12.5818C145.03 12.3615 144.985 12.1431 144.895 11.9422C144.804 11.7413 144.671 11.563 144.503 11.4204C144.139 11.1041 143.67 10.9373 143.188 10.9536C142.905 10.9571 142.624 11.004 142.355 11.0925C142.066 11.1855 141.787 11.3065 141.521 11.4537C141.257 11.6026 141.008 11.7785 140.78 11.9788C140.557 12.1669 140.354 12.3773 140.174 12.6068C139.849 12.961 139.604 13.3807 139.454 13.8376C139.294 14.3187 139.161 14.8085 139.057 15.3047L137.729 21.5118H135.753L137.195 14.6517C137.304 14.1877 137.393 13.7543 137.473 13.3486C137.527 13.08 137.562 12.808 137.579 12.5345C137.591 12.3217 137.559 12.1087 137.485 11.9089C137.411 11.709 137.296 11.5266 137.148 11.3731C136.978 11.2247 136.781 11.1112 136.568 11.0392C136.354 10.9672 136.128 10.9381 135.903 10.9536C135.332 10.9614 134.774 11.1227 134.286 11.4204C133.781 11.7055 133.326 12.0716 132.939 12.504C132.565 12.8416 132.27 13.2583 132.077 13.7237C131.9 14.2127 131.76 14.7142 131.658 15.2241L130.31 21.5118H128.365L130.899 9.48931H132.73Z" fill="#343434"/>
<path d="M5.89873 0L0 25.0064H8.32435L14.2203 0H5.89873Z" fill="#343434"/>
<path d="M16.5179 0L10.6191 25.0064H18.9435L24.8422 0H16.5179Z" fill="#343434"/>
<path d="M27.137 0L21.2383 25.0064H29.5626L35.4614 0H27.137Z" fill="#343434"/>
</svg>
